<?xml version="1.0" encoding="UTF-8"?>
<svg width="19px" height="26px" viewBox="0 0 19 26" version="1.1" xmlns="http://www.w3.org/2000/svg" xmlns:xlink="http://www.w3.org/1999/xlink">
    <!-- Generator: Sketch 43.2 (39069) - http://www.bohemiancoding.com/sketch -->
    <title>Maps Icon I</title>
    <desc>Created with Sketch.</desc>
    <defs></defs>
    <g id="Welcome" stroke="none" stroke-width="1" fill="none" fill-rule="evenodd">
        <g id="Desktop-HD" transform="translate(-1018.000000, -862.000000)" fill="#D1D3D4">
            <g id="text" transform="translate(346.000000, 797.000000)">
                <path d="M681.372302,78.8126403 C678.998734,78.8126403 677.075635,76.8880447 677.075635,74.5159731 C677.075635,72.1424049 678.998734,70.2193058 681.372302,70.2193058 C683.745122,70.2193058 685.668221,72.1424049 685.668221,74.5159731 C685.668221,76.8880447 683.745122,78.8126403 681.372302,78.8126403 Z M681.372302,65 C676.045991,65 672,69.7284292 672,74.5616186 C672,78.4167962 681.372302,91 681.372302,91 C681.372302,91 690.744604,78.4167962 690.744604,74.5616186 C690.744604,69.7284292 686.697116,65 681.372302,65 L681.372302,65 Z" id="Maps-Icon-I"></path>
            </g>
        </g>
    </g>
</svg>