<?xml version="1.0" encoding="UTF-8"?>
<svg width="19px" height="26px" viewBox="0 0 19 26" version="1.1" xmlns="http://www.w3.org/2000/svg" xmlns:xlink="http://www.w3.org/1999/xlink">
    <!-- Generator: Sketch 43.2 (39069) - http://www.bohemiancoding.com/sketch -->
    <title>Maps Icon I</title>
    <desc>Created with Sketch.</desc>
    <defs></defs>
    <g id="Version-2" stroke="none" stroke-width="1" fill="none" fill-rule="evenodd">
        <g id="P1" transform="translate(-748.000000, -788.000000)" fill="#ED3F54">
            <g id="Group" transform="translate(137.000000, 730.000000)">
                <path d="M620.372302,71.8126403 C617.998734,71.8126403 616.075635,69.8880447 616.075635,67.5159731 C616.075635,65.1424049 617.998734,63.2193058 620.372302,63.2193058 C622.745122,63.2193058 624.668221,65.1424049 624.668221,67.5159731 C624.668221,69.8880447 622.745122,71.8126403 620.372302,71.8126403 Z M620.372302,58 C615.045991,58 611,62.7284292 611,67.5616186 C611,71.4167962 620.372302,84 620.372302,84 C620.372302,84 629.744604,71.4167962 629.744604,67.5616186 C629.744604,62.7284292 625.697116,58 620.372302,58 L620.372302,58 Z" id="Maps-Icon-I"></path>
            </g>
        </g>
    </g>
</svg>