<?xml version="1.0" encoding="UTF-8"?>
<svg width="478px" height="919px" viewBox="0 0 478 919" version="1.1" xmlns="http://www.w3.org/2000/svg" xmlns:xlink="http://www.w3.org/1999/xlink">
    <!-- Generator: Sketch 43.2 (39069) - http://www.bohemiancoding.com/sketch -->
    <title>Group 6</title>
    <desc>Created with Sketch.</desc>
    <defs></defs>
    <g id="Maps-Vector" stroke="none" stroke-width="1" fill="none" fill-rule="evenodd">
        <g id="Group-6" transform="translate(0.000000, -6.000000)">
            <rect id="Rectangle" x="0" y="0" width="516" height="927"></rect>
            <g id="Group-5">
                <g id="bonfire" transform="translate(41.000000, 724.000000)">
                    <text id="Bonfire" font-family="GlassAntiqua-Regular, Glass Antiqua" font-size="25" font-weight="normal" letter-spacing="2.75" fill="#4A4A4A">
                        <tspan x="0" y="77">Bonfire</tspan>
                    </text>
                    <g id="vector-bonfire" transform="translate(16.000000, 0.000000)" fill-rule="nonzero" fill="#50E3C2">
                        <path d="M11.5080734,34.7364 C14.0739734,39.402 18.9753734,42.3 24.2997734,42.3 L28.6341734,42.3 C35.2239734,42.3 41.4627734,39.1104 45.3219734,33.768 C49.0533734,28.6002 49.4466734,21.6711 46.3209734,16.1145 L43.0827734,10.359 C42.9450734,10.1133 42.7002734,9.9468 42.4212734,9.909 C42.1431734,9.8694 41.8614734,9.9657 41.6625734,10.1646 L37.2138734,14.6133 C37.3137734,11.2698 36.2301734,7.9884 34.0899734,5.3208 C31.3782734,1.9386 27.3381734,0 23.0046734,0 L17.0997734,0 C16.7442734,0 16.4220734,0.2088 16.2780734,0.5337 C16.1331734,0.8586 16.1925734,1.2375 16.4310734,1.5021 L16.7046734,1.8054 C20.7906734,6.345 22.1982734,12.7242 20.5161734,18.5157 L16.9863734,12.1617 C16.8459734,11.9088 16.5921734,11.7387 16.3050734,11.7054 C16.0215734,11.6748 15.7308734,11.7774 15.5364734,11.9907 L13.1568734,14.5863 C8.39767335,19.7775 7.47967335,27.4113 10.8744734,33.5835 L11.5080734,34.7364 Z M32.5068734,38.1123 C31.5690734,39.7188 29.7681734,40.5 26.9997734,40.5 C24.5616734,40.5 23.0289734,39.8709 22.4448734,38.6316 C20.7096734,34.9497 26.3715734,26.4276 29.5494734,22.3308 C31.5609734,26.2899 34.7487734,34.272 32.5068734,38.1123 Z M14.4843734,15.804 L16.0197734,14.1291 L19.9131734,21.1374 C20.0814734,21.438 20.4126734,21.618 20.7501734,21.5991 C21.0948734,21.5802 21.3981734,21.3651 21.5304734,21.0465 C24.1962734,14.6475 23.1981734,7.2585 19.0356734,1.8 L23.0037734,1.8 C26.7882734,1.8 30.3180734,3.4929 32.6859734,6.4458 C35.0547734,9.3987 35.9421734,13.2102 35.1204734,16.9056 C35.0340734,17.2962 35.2149734,17.6967 35.5659734,17.8893 C35.9160734,18.0801 36.3516734,18.0198 36.6351734,17.7372 L42.0954734,12.276 L44.7513734,16.9974 C47.5341734,21.9447 47.1840734,28.1142 43.8621734,32.7141 C41.3052734,36.2529 37.6026734,38.7495 33.4662734,39.8565 C33.6840734,39.5964 33.8856734,39.3201 34.0620734,39.0186 C37.5900734,32.9724 30.7752734,20.7738 30.4818734,20.2572 C30.3369734,19.9989 30.0732734,19.8297 29.7780734,19.8036 C29.4882734,19.7784 29.1948734,19.8981 29.0058734,20.1267 C27.8799734,21.4893 18.0879734,33.6051 20.8158734,39.3984 C20.9391734,39.6594 21.0876734,39.8997 21.2532734,40.1256 C17.8188734,39.2841 14.8317734,37.0476 13.0839734,33.8688 L12.4503734,32.7168 C9.42997335,27.2232 10.2471734,20.4255 14.4843734,15.804 Z" id="Shape"></path>
                        <path d="M15.2997734,9.9 C15.2997734,6.426 12.4728734,3.6 8.99977335,3.6 L7.19977335,3.6 C6.70207335,3.6 6.29977335,4.0032 6.29977335,4.5 C6.29977335,7.974 9.12667335,10.8 12.5997734,10.8 L14.3997734,10.8 C14.8974734,10.8 15.2997734,10.3968 15.2997734,9.9 Z M12.5997734,9 C10.4262734,9 8.60827335,7.4511 8.19067335,5.4 L8.99977335,5.4 C11.1732734,5.4 12.9912734,6.9489 13.4088734,9 L12.5997734,9 Z" id="Shape"></path>
                        <path d="M53.6397734,47.88 L50.0397734,45.18 C50.0388734,45.1791 50.0370734,45.1791 50.0352734,45.1782 C50.0109734,45.1602 49.9785734,45.1566 49.9524734,45.1404 C49.8606734,45.0864 49.7670734,45.0378 49.6635734,45.0189 C49.6581734,45.018 49.6536734,45.0135 49.6473734,45.0117 L33.4473734,42.3117 C33.1287734,42.2577 32.8011734,42.3828 32.5968734,42.6375 L29.7222734,46.2312 L28.7358734,43.7652 C28.5891734,43.3998 28.2354734,43.1739 27.8304734,43.2027 L4.43047335,45.0027 C4.38907335,45.0063 4.35127335,45.0189 4.31167335,45.0279 C4.27837335,45.0351 4.24417335,45.0378 4.21267335,45.0486 C4.16587335,45.0648 4.12357335,45.0891 4.08037335,45.1116 C4.05517335,45.1251 4.02817335,45.1341 4.00477335,45.1494 C3.95167335,45.1845 3.90397335,45.2286 3.85897335,45.2745 C3.84997335,45.2844 3.83827335,45.2907 3.82927335,45.3006 C3.77797335,45.3582 3.73297335,45.423 3.69697335,45.495 L3.69697335,45.4959 C3.69607335,45.4968 3.69607335,45.4977 3.69517335,45.4986 L0.0951733542,52.6986 C-0.0443266458,52.9776 -0.0299266458,53.3088 0.134773354,53.5743 C0.298573354,53.838 0.587473354,54 0.899773354,54 L8.99977335,54 C9.06277335,54 9.12757335,53.9937 9.19147335,53.9793 L29.8914734,49.4793 C30.1497734,49.4226 30.3702734,49.2561 30.4944734,49.0221 C30.5106734,48.9915 30.5097734,48.9555 30.5223734,48.9231 L45.6153734,53.9541 C45.6234734,53.9568 45.6324734,53.9559 45.6405734,53.9586 C45.7233734,53.9829 45.8097734,54 45.8997734,54 L53.0997734,54 C53.5974734,54 53.9997734,53.5968 53.9997734,53.1 L53.9997734,48.6 C53.9997734,48.3165 53.8665734,48.0501 53.6397734,47.88 Z M2.35597335,52.2 L4.58707335,47.7378 L7.37527335,52.2 L2.35597335,52.2 Z M9.42817335,52.0866 L6.05137335,46.6839 L27.3102734,45.0486 L28.4694734,47.9475 L9.42817335,52.0866 Z M33.6723734,44.1747 L48.1497734,46.5876 L45.4434734,51.9993 L31.2090734,47.2545 L33.6723734,44.1747 Z M52.1997734,52.2 L47.3559734,52.2 L49.8219734,47.2671 L52.1997734,49.05 L52.1997734,52.2 Z" id="Shape"></path>
                    </g>
                </g>
                <g id="party" transform="translate(398.000000, 626.000000)">
                    <text id="Party" font-family="GlassAntiqua-Regular, Glass Antiqua" font-size="25" font-weight="normal" letter-spacing="2.75" fill="#4A4A4A">
                        <tspan x="0" y="79">Party</tspan>
                    </text>
                    <g id="vector-disco" transform="translate(5.000000, 0.000000)" fill-rule="nonzero" fill="#50E3C2">
                        <path d="M8.33333333,4.22763158 C8.73333333,4.22763158 9,3.95921053 9,3.55657895 L9,2.75131579 L9.8,2.75131579 C10.2,2.75131579 10.4666667,2.48289474 10.4666667,2.08026316 C10.4666667,1.67763158 10.2,1.40921053 9.8,1.40921053 L9,1.40921053 L9,0.671052632 C9,0.268421053 8.73333333,0 8.33333333,0 C7.93333333,0 7.66666667,0.268421053 7.66666667,0.671052632 L7.66666667,1.47631579 L6.86666667,1.47631579 C6.46666667,1.47631579 6.2,1.74473684 6.2,2.14736842 C6.2,2.55 6.46666667,2.81842105 6.86666667,2.81842105 L7.66666667,2.81842105 L7.66666667,3.62368421 C7.66666667,3.89210526 7.93333333,4.22763158 8.33333333,4.22763158 Z" id="Shape"></path>
                        <path d="M48.2,50.5302632 C48.6,50.5302632 48.8666667,50.2618421 48.8666667,49.8592105 L48.8666667,49.0539474 L49.6666667,49.0539474 C50.0666667,49.0539474 50.3333333,48.7855263 50.3333333,48.3828947 C50.3333333,47.9802632 50.0666667,47.7118421 49.6666667,47.7118421 L48.8666667,47.7118421 L48.8666667,46.9065789 C48.8666667,46.5039474 48.6,46.2355263 48.2,46.2355263 C47.8,46.2355263 47.5333333,46.5039474 47.5333333,46.9065789 L47.5333333,47.7118421 L46.7333333,47.7118421 C46.3333333,47.7118421 46.0666667,47.9802632 46.0666667,48.3828947 C46.0666667,48.7855263 46.3333333,49.0539474 46.7333333,49.0539474 L47.5333333,49.0539474 L47.5333333,49.8592105 C47.5333333,50.1947368 47.8,50.5302632 48.2,50.5302632 Z" id="Shape"></path>
                        <path d="M48.2,16.9105263 C47.8,16.9105263 47.5333333,17.1789474 47.5333333,17.5815789 L47.5333333,19.0578947 L46.0666667,19.0578947 C45.6666667,19.0578947 45.4,19.3263158 45.4,19.7289474 C45.4,20.1315789 45.6666667,20.4 46.0666667,20.4 L47.5333333,20.4 L47.5333333,21.8763158 C47.5333333,22.2789474 47.8,22.5473684 48.2,22.5473684 C48.6,22.5473684 48.8666667,22.2789474 48.8666667,21.8763158 L48.8666667,20.4 L50.3333333,20.4 C50.7333333,20.4 51,20.1315789 51,19.7289474 C51,19.3263158 50.7333333,19.0578947 50.3333333,19.0578947 L48.8666667,19.0578947 L48.8666667,17.5815789 C48.8666667,17.1789474 48.5333333,16.9105263 48.2,16.9105263 Z" id="Shape"></path>
                        <path d="M42,8.85789474 C42.4,8.85789474 42.6666667,8.58947368 42.6666667,8.18684211 L42.6666667,6.71052632 L44.1333333,6.71052632 C44.5333333,6.71052632 44.8,6.44210526 44.8,6.03947368 C44.8,5.63684211 44.5333333,5.36842105 44.1333333,5.36842105 L42.6666667,5.36842105 L42.6666667,3.89210526 C42.6666667,3.48947368 42.4,3.22105263 42,3.22105263 C41.6,3.22105263 41.3333333,3.48947368 41.3333333,3.89210526 L41.3333333,5.36842105 L39.8666667,5.36842105 C39.4666667,5.36842105 39.2,5.63684211 39.2,6.03947368 C39.2,6.44210526 39.4666667,6.71052632 39.8666667,6.71052632 L41.3333333,6.71052632 L41.3333333,8.18684211 C41.3333333,8.58947368 41.6,8.85789474 42,8.85789474 Z" id="Shape"></path>
                        <path d="M2.6,17.3131579 C3,17.3131579 3.26666667,17.0447368 3.26666667,16.6421053 L3.26666667,15.5013158 L4.4,15.5013158 C4.8,15.5013158 5.06666667,15.2328947 5.06666667,14.8302632 C5.06666667,14.4276316 4.8,14.1592105 4.4,14.1592105 L3.26666667,14.1592105 L3.26666667,13.0184211 C3.26666667,12.6157895 3,12.3473684 2.6,12.3473684 C2.2,12.3473684 1.93333333,12.6157895 1.93333333,13.0184211 L1.93333333,14.1592105 L0.8,14.1592105 C0.4,14.1592105 0.133333333,14.4276316 0.133333333,14.8302632 C0.133333333,15.2328947 0.4,15.5013158 0.8,15.5013158 L1.93333333,15.5013158 L1.93333333,16.6421053 C1.93333333,17.0447368 2.2,17.3131579 2.6,17.3131579 Z" id="Shape"></path>
                        <path d="M4.8,50.8657895 C5.2,50.8657895 5.46666667,50.5973684 5.46666667,50.1947368 L5.46666667,49.0539474 L6.6,49.0539474 C7,49.0539474 7.26666667,48.7855263 7.26666667,48.3828947 C7.26666667,47.9802632 7,47.7118421 6.6,47.7118421 L5.46666667,47.7118421 L5.46666667,46.5710526 C5.46666667,46.1684211 5.2,45.9 4.8,45.9 C4.4,45.9 4.13333333,46.1684211 4.13333333,46.5710526 L4.13333333,47.7118421 L3,47.7118421 C2.6,47.7118421 2.33333333,47.9802632 2.33333333,48.3828947 C2.33333333,48.7855263 2.6,49.0539474 3,49.0539474 L4.13333333,49.0539474 L4.13333333,50.1947368 C4.13333333,50.5973684 4.4,50.8657895 4.8,50.8657895 Z" id="Shape"></path>
                        <ellipse id="Oval" cx="50.3333333" cy="38.9881579" rx="1" ry="1"></ellipse>
                        <ellipse id="Oval" cx="0.8" cy="37.7802632" rx="1" ry="1"></ellipse>
                        <ellipse id="Oval" cx="51.0666667" cy="6.03947368" rx="1" ry="1"></ellipse>
                        <ellipse id="Oval" cx="16.6" cy="9.12631579" rx="1" ry="1"></ellipse>
                        <path d="M44,31.9421053 C44,25.9697368 41.2666667,20.6013158 37,17.1118421 C37,17.1118421 36.9333333,17.1118421 36.9333333,17.0447368 C33.9333333,14.6289474 30.1333333,13.0855263 26.0666667,12.9513158 L26.0666667,1.87894737 C26.0666667,1.47631579 25.8,1.20789474 25.4,1.20789474 C25,1.20789474 24.7333333,1.47631579 24.7333333,1.87894737 L24.7333333,12.9513158 C14.7333333,13.3539474 6.73333333,21.675 6.73333333,31.9421053 C6.73333333,42.4105263 15.0666667,50.9328947 25.3333333,50.9328947 C35.6,50.9328947 44,42.4105263 44,31.9421053 Z M22.4666667,49.3894737 L22.4666667,43.2828947 L28.4666667,43.2828947 L28.4666667,49.3223684 C27.4666667,49.5236842 26.4,49.5907895 25.3333333,49.5907895 C24.4,49.5907895 23.4,49.5236842 22.4666667,49.3894737 Z M15.0666667,43.2828947 L21.0666667,43.2828947 L21.0666667,49.1210526 C18.8666667,48.5171053 16.8,47.5105263 15.0666667,46.1684211 L15.0666667,46.1013158 L15.0666667,43.2828947 Z M8.53333333,35.9013158 L13.8,35.9013158 L13.8,41.9407895 L11.1333333,41.9407895 C9.86666667,40.1289474 9,38.0486842 8.53333333,35.9013158 Z M11.8,21.0039474 C11.8666667,21.0039474 11.9333333,21.0710526 12,21.0710526 L13.7333333,21.0710526 L13.7333333,27.1105263 L8.73333333,27.1105263 C9.4,24.8960526 10.4,22.8157895 11.8,21.0039474 Z M25.3333333,14.2934211 C26.4,14.2934211 27.4666667,14.4276316 28.4666667,14.5618421 C28.4,14.6289474 28.4,14.7631579 28.4,14.8302632 L28.4,19.7289474 L22.4,19.7289474 L22.4,14.8302632 C22.4,14.6960526 22.4,14.6289474 22.3333333,14.5618421 C23.3333333,14.3605263 24.3333333,14.2934211 25.3333333,14.2934211 Z M38.9333333,21.0710526 C40.2666667,22.8828947 41.3333333,24.8960526 41.9333333,27.1105263 L37.1333333,27.1105263 L37.1333333,21.0710526 L38.9333333,21.0710526 L38.9333333,21.0710526 Z M39.6,41.9407895 L37.1333333,41.9407895 L37.1333333,35.9013158 L42.2,35.9013158 C41.7333333,38.0486842 40.8,40.1289474 39.6,41.9407895 Z M29.8,41.9407895 L29.8,35.9013158 L35.8,35.9013158 L35.8,41.9407895 L29.8,41.9407895 Z M35.8,43.2828947 L35.8,46.0342105 C34,47.4434211 32,48.45 29.8,49.0539474 L29.8,43.2828947 L35.8,43.2828947 Z M22.4666667,28.4526316 L28.4666667,28.4526316 L28.4666667,34.4921053 L22.4666667,34.4921053 L22.4666667,28.4526316 Z M21.1333333,34.5592105 L15.1333333,34.5592105 L15.1333333,28.5197368 L21.1333333,28.5197368 L21.1333333,34.5592105 Z M22.4666667,27.1105263 L22.4666667,21.0710526 L28.4666667,21.0710526 L28.4666667,27.1105263 L22.4666667,27.1105263 Z M29.8,28.4526316 L35.8,28.4526316 L35.8,34.4921053 L29.8,34.4921053 L29.8,28.4526316 L29.8,28.4526316 Z M28.4666667,35.9013158 L28.4666667,41.9407895 L22.4666667,41.9407895 L22.4666667,35.9013158 L28.4666667,35.9013158 Z M37.1333333,34.5592105 L37.1333333,28.5197368 L42.2666667,28.5197368 C42.4666667,29.6605263 42.6,30.8013158 42.6,32.0092105 C42.6,32.8815789 42.5333333,33.7539474 42.4,34.5592105 L37.1333333,34.5592105 Z M35.8,27.1105263 L29.8,27.1105263 L29.8,21.0710526 L35.8,21.0710526 L35.8,27.1105263 Z M29.8,19.7289474 L29.8,14.8973684 C32,15.5013158 34.0666667,16.5078947 35.8,17.9171053 L35.8,19.7289474 L29.8,19.7289474 Z M21.1333333,14.8302632 L21.1333333,19.7289474 L15.1333333,19.7289474 L15.1333333,17.85 L15.1333333,17.7828947 C16.8666667,16.4407895 18.9333333,15.3671053 21.1333333,14.8302632 L21.1333333,14.8302632 Z M21.1333333,21.0710526 L21.1333333,27.1105263 L15.1333333,27.1105263 L15.1333333,21.0710526 L21.1333333,21.0710526 Z M13.7333333,28.4526316 L13.7333333,34.4921053 L8.26666667,34.4921053 C8.13333333,33.6197368 8.06666667,32.8144737 8.06666667,31.9421053 C8.06666667,30.7342105 8.2,29.5934211 8.4,28.4526316 L13.7333333,28.4526316 Z M15.0666667,35.9013158 L21.0666667,35.9013158 L21.0666667,41.9407895 L15.0666667,41.9407895 L15.0666667,35.9013158 Z M37.1333333,44.8263158 L37.1333333,43.2828947 L38.6,43.2828947 C38.1333333,43.8197368 37.6666667,44.3565789 37.1333333,44.8263158 Z M37.8,19.7289474 L37.1333333,19.7289474 L37.1333333,19.0578947 C37.4,19.2592105 37.6,19.5276316 37.8,19.7289474 Z M13.7333333,18.8565789 L13.7333333,19.7289474 L12.8666667,19.7289474 C13.2,19.4605263 13.4666667,19.125 13.7333333,18.8565789 Z M12.1333333,43.2828947 L13.8,43.2828947 L13.8,45.0276316 C13.2,44.4907895 12.6,43.8868421 12.1333333,43.2828947 Z" id="Shape"></path>
                    </g>
                </g>
                <g id="dinner" transform="translate(44.000000, 538.000000)">
                    <text id="Dinner" font-family="GlassAntiqua-Regular, Glass Antiqua" font-size="25" font-weight="normal" letter-spacing="2.75" fill="#4A4A4A">
                        <tspan x="0" y="75">Dinner</tspan>
                    </text>
                    <g id="vector-pizza" transform="translate(16.000000, 0.000000)" fill-rule="nonzero" fill="#50E3C2">
                        <path d="M48.3153803,47.6614211 L36.8452394,7.54410526 C37.3559437,6.69773684 38.9591408,3.38684211 35.0467324,0.363315789 C34.8597042,0.217578947 34.6091831,0.179263158 34.3848873,0.260684211 C34.1302254,0.353736842 8.81861972,9.74452632 0.38371831,28.1162632 C0.31815493,28.2578947 0.304352113,28.418 0.343,28.5692105 C0.629408451,29.6769474 1.79505634,31.7713158 4.15533803,31.772 L4.15602817,31.772 C4.557,31.772 4.97867606,31.7104211 5.41415493,31.59 L45.6818028,51.8604211 C45.7577183,51.8987368 45.8405352,51.9226842 45.9261127,51.9315789 C45.947507,51.9336316 46.0020282,51.9384211 46.0827746,51.9384211 C46.4140423,51.9384211 47.1787183,51.8604211 47.7756901,51.2117895 C48.451338,50.4769474 48.6383662,49.3014737 48.3153803,47.6614211 Z M40.3076761,24.7328421 C40.3076761,24.7328421 34.535338,29.0488421 37.6920423,32.4842632 C37.6920423,32.4842632 41.223493,37.0547895 43.2318028,34.8933684 L46.9737465,47.9775263 C47.0268873,48.2518947 47.0627746,48.5084737 47.0800282,48.7458947 C45.2725493,45.5273684 41.9239859,47.5218421 41.1496479,48.0459474 L37.5802394,46.2492105 L37.671338,46.1547895 L34.9487324,43.5732632 L34.4718451,44.0679474 L35.8576479,45.3816316 L31.409,43.1428947 C32.4759577,42.1507895 31.8900282,39.0287368 31.8900282,39.0287368 C31.8900282,36.6812105 28.2205493,33.865 28.2205493,33.865 C24.0776338,31.8698421 18.1582958,36.4465263 18.1582958,36.4465263 L18.9174507,36.8543158 L6.62811268,30.6676842 C8.89177465,27.8596842 20.0727465,14.7132632 35.6285211,8.30357895 L40.3076761,24.7328421 Z" id="Shape"></path>
                        <path d="M19.6752254,19.2618947 C17.5309577,21.3870526 18.2010845,25.9042105 18.2010845,25.9042105 C22.0865775,29.4915263 25.8388732,28.4282632 25.8388732,28.4282632 C33.476662,28.6944211 30.1274085,20.1910526 30.1274085,20.1910526 C27.0459296,14.7447368 19.6752254,19.2618947 19.6752254,19.2618947 Z" id="Shape"></path>
                        <rect id="Rectangle-path" transform="translate(44.742471, 44.416999) rotate(-108.427701) translate(-44.742471, -44.416999) " x="43.4334467" y="43.9170031" width="2.62040046" height="1"></rect>
                        <rect id="Rectangle-path" transform="translate(25.472255, 31.288461) rotate(-160.197027) translate(-25.472255, -31.288461) " x="23.8999045" y="30.7884615" width="3.14578504" height="1"></rect>
                        <rect id="Rectangle-path" transform="translate(12.688576, 26.767791) rotate(-143.978103) translate(-12.688576, -26.767791) " x="12.1885986" y="25.9670068" width="1" height="1.59627836"></rect>
                        <rect id="Rectangle-path" transform="translate(34.510468, 26.585236) rotate(31.992629) translate(-34.510468, -26.585236) " x="33.3907609" y="26.0852592" width="2.23394308" height="1"></rect>
                        <rect id="Rectangle-path" transform="translate(35.328997, 36.150478) rotate(-164.472515) translate(-35.328997, -36.150478) " x="34.8290024" y="35.0527556" width="1" height="2.19288985"></rect>
                        <path d="M17.8553239,29.5797895 C17.3494507,28.9920526 16.6979577,28.626 15.9864225,28.3406842 C15.1127042,27.9910526 14.0919859,28.7149474 13.8642394,29.5353158 C13.5978451,30.4952632 14.1782535,31.2602105 15.0243662,31.6180526 L15.028507,31.6228421 C14.8490704,31.5448421 14.8283662,31.5407368 14.9822676,31.616 L15.0954507,31.6871579 C15.2072535,31.7856842 15.3162958,31.8883158 15.4156761,31.9984737 L15.4439718,32.032 L15.5757887,32.2016842 C15.7179577,32.3966842 15.8539155,32.5964737 15.9947042,32.7928421 C16.5378451,33.5516316 17.4902394,33.9087895 18.3549859,33.4058947 C19.1127606,32.9659474 19.5192535,31.8274211 18.9740423,31.0658947 C18.6124085,30.5616316 18.2611268,30.0512105 17.8553239,29.5797895 Z M15.033338,31.6235263 L15.0699155,31.6406316 L15.0388592,31.6269474 L15.033338,31.6235263 Z" id="Shape"></path>
                        <path d="M40.9957465,40.2438947 L40.9260423,40.1604211 L40.8418451,40.0461579 C40.5844225,39.6910526 40.3573662,39.3140526 40.1372113,38.935 C39.6679155,38.1283158 38.5843944,37.8518947 37.7769296,38.3219474 C36.9625634,38.7940526 36.6878873,39.8538947 37.1585634,40.6619474 C37.6575352,41.5199474 38.2234507,42.3505789 38.9239437,43.0607895 C39.5809577,43.7278947 40.704507,43.7142105 41.3635915,43.0607895 C42.0344085,42.3957368 42.0206056,41.3078421 41.3635915,40.6421053 C41.2366056,40.5127895 41.1144507,40.3807368 40.9957465,40.2438947 Z" id="Shape"></path>
                        <path d="M34.437338,19.3412632 C35.0315493,20.0651579 36.2634507,19.9502105 36.8769859,19.3412632 C37.592662,18.6324211 37.4698169,17.6444211 36.8769859,16.9225789 C36.4684225,16.4244737 36.4139014,15.4823158 36.3469577,14.8247895 C36.2530986,13.8976842 35.6333521,13.1142632 34.6216056,13.1142632 C33.7520282,13.1142632 32.8017042,13.8956316 32.8962535,14.8247895 C32.962507,15.4761579 33.0432535,16.0960526 33.1792113,16.6906316 L29.5539014,16.1377895 L29.449,16.8137895 L33.3855634,17.4138421 C33.6112394,18.0877895 33.9342254,18.7288947 34.437338,19.3412632 Z" id="Shape"></path>
                    </g>
                </g>
                <g id="toast" transform="translate(408.000000, 435.000000)">
                    <g id="vector-toast" transform="translate(8.000000, 0.000000)">
                        <path d="M0.532606442,53.164557 L10.6526064,55.4329114 L10.7941449,55.4329114 C11.1479911,55.4329114 11.431068,55.2202532 11.5018372,54.8658228 C11.5726064,54.5113924 11.3602987,54.0860759 10.9356834,54.0151899 L6.4064526,53.0227848 L9.94491413,37.2860759 C11.7141449,37.2860759 13.5541449,35.7974684 15.3233757,33.1037975 C17.2341449,30.1974684 18.791068,26.156962 19.7818372,21.7620253 C20.4187603,18.9974684 21.6218372,12.1924051 21.7633757,9.4278481 C21.7633757,9.07341772 21.551068,8.78987342 21.1972218,8.71898734 L10.6526064,6.30886076 C10.2987603,6.23797468 9.94491413,6.37974684 9.8741449,6.73417722 C8.81260644,9.28607595 7.04337567,15.9493671 6.4064526,18.7139241 C4.42491413,27.6455696 5.41568336,35.3721519 8.67106798,37.0025316 L5.13260644,52.7392405 L0.886452595,51.7468354 C0.532606442,51.6759494 0.107991057,51.8886076 0.0372218262,52.3139241 C-0.104316635,52.7392405 0.178760288,53.0936709 0.532606442,53.164557 Z M10.9356834,7.86835443 L20.4895295,9.99493671 C20.2772218,12.1924051 19.6402987,16.0911392 19.0741449,18.9974684 C18.5079911,18.4303797 17.7295295,17.9341772 16.5972218,17.6506329 C14.8987603,17.2253165 13.7664526,17.7924051 12.7756834,18.2177215 C11.8556834,18.643038 11.0772218,18.9974684 9.80337567,18.7139241 C9.02491413,18.5012658 8.45876029,18.2177215 8.10491413,17.7924051 C8.74183721,14.956962 10.0156834,10.2075949 10.9356834,7.86835443 Z M7.68029875,19.3518987 C8.10491413,19.635443 8.67106798,19.9189873 9.44952952,20.1316456 C11.1479911,20.4860759 12.2802987,19.9898734 13.271068,19.564557 C14.191068,19.1392405 14.9695295,18.7848101 16.2433757,19.0683544 C17.5172218,19.3518987 18.0833757,19.9898734 18.7202987,20.7696203 C18.6495295,21.0531646 18.5787603,21.2658228 18.5787603,21.478481 C17.5879911,25.7316456 16.1018372,29.6303797 14.3326064,32.3949367 C12.7049141,34.9468354 11.0064526,36.2227848 9.73260644,35.8683544 C7.1141449,35.3012658 5.69876029,28.4253165 7.68029875,19.3518987 Z" id="Shape" fill="#50E3C2" fill-rule="nonzero"></path>
                        <path d="M30.2556834,33.1037975 C32.0249141,35.7974684 33.9356834,37.2860759 35.6341449,37.2860759 L39.1726064,53.0227848 L34.7141449,54.0860759 C34.3602987,54.156962 34.0772218,54.5822785 34.1479911,54.9367089 C34.2187603,55.2911392 34.5018372,55.5037975 34.8556834,55.5037975 L34.9972218,55.5037975 L45.1172218,53.235443 C45.471068,53.164557 45.7541449,52.7392405 45.6833757,52.3848101 C45.6126064,52.0303797 45.1879911,51.7468354 44.8341449,51.8177215 L40.5879911,52.8101266 L37.0495295,37.0734177 C38.6064526,36.2936709 39.7387603,34.1670886 40.1633757,30.9772152 C40.6587603,27.5746835 40.3756834,23.2506329 39.3141449,18.7848101 C38.6772218,16.0202532 36.9079911,9.35696203 35.8464526,6.80506329 C35.7049141,6.52151899 35.351068,6.30886076 35.0679911,6.37974684 L24.3818372,8.78987342 C24.0279911,8.86075949 23.8156834,9.1443038 23.8156834,9.49873418 C23.9572218,12.2632911 25.1602987,19.0683544 25.7972218,21.8329114 C26.7879911,26.2278481 28.4156834,30.2683544 30.2556834,33.1037975 Z M38.7479911,30.6936709 C38.3233757,33.6708861 37.3326064,35.5848101 36.0587603,35.8683544 C34.7849141,36.1518987 33.0864526,34.8759494 31.4587603,32.3949367 C29.6895295,29.6303797 28.1326064,25.8025316 27.2126064,21.478481 C27.1418372,21.2658228 27.1418372,20.9822785 27.071068,20.7696203 C27.7079911,19.9898734 28.2741449,19.3518987 29.5479911,19.0683544 C30.8218372,18.7848101 31.6002987,19.1392405 32.5202987,19.564557 C33.511068,20.0607595 34.6433757,20.556962 36.3418372,20.1316456 C37.1202987,19.9898734 37.6864526,19.7063291 38.111068,19.3518987 C38.9602987,23.5341772 39.1726064,27.5037975 38.7479911,30.6936709 Z M34.7849141,7.86835443 C35.7049141,10.278481 36.9787603,14.956962 37.6864526,17.8632911 C37.2618372,18.2177215 36.7664526,18.5721519 35.9879911,18.7848101 C34.7141449,19.0683544 33.9356834,18.7139241 33.0156834,18.2886076 C32.0249141,17.7924051 30.8926064,17.2962025 29.1941449,17.721519 C27.991068,18.0050633 27.2833757,18.5012658 26.7172218,19.0683544 C26.151068,16.1620253 25.5141449,12.2632911 25.3018372,10.0658228 L34.7849141,7.86835443 Z" id="Shape" fill="#50E3C2" fill-rule="nonzero"></path>
                        <path d="M22.8249141,5.10379747 L22.8249141,5.10379747 C23.2495295,5.10379747 23.5326064,4.74936709 23.5326064,4.39493671 L23.4618372,0.708860759 C23.4618372,0.283544304 23.1787603,0 22.7541449,0 C22.3295295,0 22.0464526,0.35443038 22.0464526,0.708860759 L22.1172218,4.39493671 C22.1879911,4.74936709 22.471068,5.10379747 22.8249141,5.10379747 Z" id="Shape" fill="#50E3C2" fill-rule="nonzero"></path>
                        <path d="M18.0833757,5.10379747 C18.2249141,5.3164557 18.4372218,5.45822785 18.7202987,5.45822785 C18.8618372,5.45822785 19.0033757,5.45822785 19.0741449,5.38734177 C19.4279911,5.17468354 19.4987603,4.74936709 19.2864526,4.39493671 L17.3756834,1.20506329 C17.1633757,0.850632911 16.7387603,0.779746835 16.3849141,0.992405063 C16.031068,1.20506329 15.9602987,1.63037975 16.1726064,1.98481013 L18.0833757,5.10379747 Z" id="Shape" fill="#50E3C2" fill-rule="nonzero"></path>
                        <path d="M26.5756834,5.3164557 C26.7172218,5.38734177 26.7879911,5.45822785 26.9295295,5.45822785 C27.1418372,5.45822785 27.4249141,5.3164557 27.4956834,5.10379747 L29.4772218,1.91392405 C29.6895295,1.55949367 29.5479911,1.13417722 29.2649141,0.921518987 C28.911068,0.708860759 28.4864526,0.850632911 28.2741449,1.13417722 L26.2926064,4.32405063 C26.151068,4.67848101 26.2218372,5.10379747 26.5756834,5.3164557 Z" id="Shape" fill="#50E3C2" fill-rule="nonzero"></path>
                        <ellipse id="Oval-2" stroke="#50E3C2" fill="#FFFFFF" cx="10.2987603" cy="25.7316456" rx="1.06153846" ry="1.06329114"></ellipse>
                        <ellipse id="Oval-2" stroke="#50E3C2" fill="#FFFFFF" cx="11.7141449" cy="29.9848101" rx="1.06153846" ry="1.06329114"></ellipse>
                        <ellipse id="Oval-2" stroke="#50E3C2" fill="#FFFFFF" cx="14.5449141" cy="23.6050633" rx="1.06153846" ry="1.06329114"></ellipse>
                        <ellipse id="Oval-2" stroke="#50E3C2" fill="#FFFFFF" cx="35.7756834" cy="30.6936709" rx="1.06153846" ry="1.06329114"></ellipse>
                        <ellipse id="Oval-2" stroke="#50E3C2" fill="#FFFFFF" cx="32.2372218" cy="28.5670886" rx="1.06153846" ry="1.06329114"></ellipse>
                        <ellipse id="Oval-2" stroke="#50E3C2" fill="#FFFFFF" cx="34.3602987" cy="24.3139241" rx="1.06153846" ry="1.06329114"></ellipse>
                    </g>
                    <text id="Toast" font-family="GlassAntiqua-Regular, Glass Antiqua" font-size="25" font-weight="normal" letter-spacing="2.75" fill="#4A4A4A">
                        <tspan x="0" y="81">Toast</tspan>
                    </text>
                </g>
                <g id="ceremony" transform="translate(17.000000, 336.000000)">
                    <text id="Ceremony" font-family="GlassAntiqua-Regular, Glass Antiqua" font-size="25" font-weight="normal" letter-spacing="2.75" fill="#4A4A4A">
                        <tspan x="0" y="72">Ceremony</tspan>
                    </text>
                    <g id="vector-rings" transform="translate(34.000000, 0.000000)" fill-rule="nonzero" fill="#50E3C2">
                        <path d="M16.0909091,45.7261905 C7.47272727,45.7261905 0.436363636,38.6619048 0.436363636,30.0095238 C0.436363636,21.3571429 7.47272727,14.2928571 16.0909091,14.2928571 C24.7090909,14.2928571 31.7454545,21.3571429 31.7454545,30.0095238 C31.7454545,32.3095238 31.2545455,34.5547619 30.2727273,36.6357143 C29.9454545,37.347619 29.1272727,37.6214286 28.4727273,37.2928571 C27.7636364,36.9642857 27.4909091,36.1428571 27.8181818,35.4857143 C28.6363636,33.7880952 29.0181818,31.8714286 29.0181818,30.0095238 C29.0181818,22.8357143 23.2363636,17.0309524 16.0909091,17.0309524 C8.94545455,17.0309524 3.16363636,22.8357143 3.16363636,30.0095238 C3.16363636,37.1833333 8.94545455,42.9880952 16.0909091,42.9880952 C18.1090909,42.9880952 20.1818182,42.4952381 21.9818182,41.5642857 C22.6363636,41.2357143 23.4545455,41.5095238 23.8363636,42.1666667 C24.1636364,42.8238095 23.8909091,43.6452381 23.2363636,44.0285714 C21.0545455,45.1238095 18.5454545,45.7261905 16.0909091,45.7261905 Z" id="Shape"></path>
                        <path d="M33.9272727,43.7 C26.4,43.7 20.2909091,37.5666667 20.2909091,30.0095238 C20.2909091,27.3809524 21,24.8619048 22.4181818,22.6714286 C22.8,22.0142857 23.6727273,21.85 24.2727273,22.2333333 C24.9272727,22.6166667 25.0909091,23.4928571 24.7090909,24.0952381 C23.6181818,25.847619 23.0181818,27.8738095 23.0181818,29.9547619 C23.0181818,35.9785714 27.9272727,40.9071429 33.9272727,40.9071429 C39.9272727,40.9071429 44.8363636,35.9785714 44.8363636,29.9547619 C44.8363636,23.9309524 39.9272727,19.002381 33.9272727,19.002381 C32.9454545,19.002381 31.9636364,19.1119048 30.9818182,19.3857143 C30.2727273,19.6047619 29.5090909,19.1666667 29.2909091,18.4547619 C29.0727273,17.7428571 29.5090909,16.9761905 30.2181818,16.7571429 C31.4181818,16.4285714 32.6181818,16.2642857 33.8727273,16.2642857 C41.4,16.2642857 47.5090909,22.397619 47.5090909,29.9547619 C47.5636364,37.5666667 41.4545455,43.7 33.9272727,43.7 Z" id="Shape"></path>
                        <path d="M27.3818182,14.95 C27.0545455,14.95 26.7272727,14.8404762 26.4545455,14.6214286 C22.9636364,11.4452381 19.3090909,8.21428571 19.3090909,4.6547619 C19.3090909,2.2452381 21.4363636,0.328571429 24,0.328571429 C25.5818182,0.328571429 26.5636364,0.876190476 27.3272727,1.64285714 C28.0909091,0.876190476 29.1272727,0.328571429 30.6545455,0.328571429 C33.2727273,0.328571429 35.3454545,2.3 35.3454545,4.6547619 C35.3454545,8.26904762 31.6909091,11.5 28.2,14.6214286 C28.0363636,14.8404762 27.7090909,14.95 27.3818182,14.95 Z M24,3.01190476 C22.9090909,3.01190476 22.0363636,3.72380952 22.0363636,4.6 C22.0363636,6.73571429 24.6,9.2547619 27.3818182,11.7190476 C30.1636364,9.2547619 32.7272727,6.73571429 32.7272727,4.6 C32.7272727,3.72380952 31.8545455,3.01190476 30.7636364,3.01190476 C29.7818182,3.01190476 29.3454545,3.23095238 28.5818182,4.5452381 C28.3636364,4.98333333 27.8727273,5.25714286 27.3818182,5.25714286 L27.3818182,5.25714286 C26.8909091,5.25714286 26.4545455,4.98333333 26.1818182,4.5452381 C25.4727273,3.23095238 24.9818182,3.01190476 24,3.01190476 Z" id="Shape"></path>
                    </g>
                </g>
                <g id="coffee" transform="translate(407.000000, 228.000000)">
                    <g id="vector-coffee" transform="translate(12.000000, 0.000000)" fill-rule="nonzero">
                        <path d="M47.6476829,49.822 L32.2718049,49.822 C33.7333902,48.778 35.0195854,47.27 36.0719268,45.53 L41.742878,45.53 C42.0351951,45.53 42.3275122,45.356 42.444439,45.066 C42.5613659,44.776 42.5029024,44.486 42.2690488,44.254 C41.2751707,43.268 40.8074634,42.282 40.9243902,41.354 C41.0413171,39.904 42.444439,38.918 42.444439,38.918 C42.444439,38.918 42.5029024,38.918 42.5029024,38.86 L47.7646098,34.452 C50.6293171,32.074 50.9800976,27.782 48.5830976,24.94 C46.946122,23.026 44.4321951,22.156 42.0351951,22.678 C42.0936585,22.272 42.0936585,22.04 42.0936585,21.924 L42.0936585,21.924 L42.0936585,21.924 L42.0936585,21.808 L42.0936585,21.692 C42.0936585,21.634 42.0351951,21.634 42.0351951,21.576 C42.0351951,21.518 41.9767317,21.518 41.9767317,21.46 C41.8013415,21.46 41.8013415,21.46 41.742878,21.46 C41.6844146,21.46 41.6844146,21.402 41.6259512,21.402 C41.5674878,21.402 41.5090244,21.402 41.5090244,21.344 C41.450561,21.344 41.450561,21.344 41.3920976,21.286 C41.3920976,21.286 41.3920976,21.286 41.3336341,21.286 L41.3336341,21.286 L7.191,21.286 C7.01560976,21.286 6.7817561,21.344 6.66482927,21.518 C6.54790244,21.692 6.43097561,21.866 6.43097561,22.04 C6.43097561,22.098 7.01560976,30.508 9.29568293,38.164 C7.83409756,38.454 6.43097561,39.15 5.32017073,40.252 C2.68931707,42.862 2.33853659,46.864 4.26782927,49.822 L0.87695122,49.822 C0.643097561,49.822 0.409243902,49.938 0.292317073,50.112 C0.175390244,50.286 0.116926829,50.576 0.175390244,50.75 C0.350780488,51.272 1.69543902,53.36 10.0557073,54.52 L10.0557073,55.158 C10.0557073,56.492 11.1665122,57.594 12.5111707,57.594 L35.8965366,57.594 C37.2411951,57.594 38.352,56.492 38.352,55.158 L38.352,54.52 C46.7707317,53.36 48.0569268,51.33 48.2323171,50.75 C48.2907805,50.518 48.2907805,50.286 48.1153902,50.112 C48.1153902,49.938 47.8815366,49.822 47.6476829,49.822 Z M41.8598049,24.36 C43.9060244,23.78 46.0691707,24.418 47.4722927,26.042 C49.343122,28.304 49.0508049,31.61 46.8291951,33.466 L41.5674878,37.816 C41.2751707,37.99 39.6381951,39.266 39.4628049,41.238 C39.345878,42.166 39.6381951,43.152 40.2228293,44.022 L36.8319512,44.022 C37.9427561,41.876 38.7612439,39.44 39.4628049,37.004 L45.543,31.9 C47.0045854,30.682 47.1799756,28.536 45.9522439,27.086 C44.841439,25.81 42.9706098,25.52 41.5674878,26.39 C41.6844146,25.694 41.8013415,24.94 41.8598049,24.36 Z M42.0936585,27.898 C42.9121463,27.202 44.139878,27.318 44.841439,28.13 C45.543,28.942 45.4260732,30.16 44.6075854,30.856 L40.1059024,34.626 C40.6320732,32.48 40.9828537,30.392 41.2751707,28.536 L42.0936585,27.898 Z M7.95102439,22.736 L40.5151463,22.736 C40.3397561,24.766 39.755122,30.45 38.2350732,36.076 C36.5396341,42.398 33.3241463,49.822 27.770122,49.822 L23.3269024,49.822 C23.5022927,49.648 23.7361463,49.474 23.9115366,49.3 C26.9516341,46.284 26.9516341,41.412 23.9115366,38.454 C20.9299024,35.496 16.1359024,35.438 13.0958049,38.338 C12.3357805,38.106 11.5757561,37.99 10.8157317,37.99 C8.88643902,31.784 8.18487805,24.998 7.95102439,22.736 Z M22.8591951,48.314 C22.2160976,48.952 21.4560732,49.416 20.579122,49.764 L20.4621951,49.822 L20.4037317,49.88 L16.5451463,49.88 C15.6097317,49.59 14.7327805,49.068 13.9727561,48.372 C11.5172927,45.936 11.5172927,41.992 13.9727561,39.556 C16.4282195,37.12 20.4037317,37.12 22.8591951,39.556 C25.3146585,41.934 25.3146585,45.878 22.8591951,48.314 Z M6.3725122,41.296 C7.83409756,39.846 9.93878049,39.208 11.985,39.614 C9.93878049,42.63 10.2310976,46.69 12.9204146,49.358 C13.0958049,49.532 13.3296585,49.706 13.5050488,49.88 L6.13865854,49.88 C3.91704878,47.386 4.03397561,43.616 6.3725122,41.296 Z M36.948878,55.216 C36.948878,55.796 36.4811707,56.26 35.8965366,56.26 L12.5111707,56.26 C11.9265366,56.26 11.4588293,55.796 11.4588293,55.216 L11.4588293,54.752 C14.6743171,55.1 18.8252195,55.332 24.1453902,55.332 C29.465561,55.332 33.6164634,55.1 36.8319512,54.752 L36.8319512,55.216 L36.948878,55.216 Z M24.2623171,53.882 C10.8157317,53.882 5.26170732,52.316 2.98163415,51.272 L20.7545122,51.272 L27.770122,51.272 L45.4845366,51.272 C43.2044634,52.374 37.650439,53.882 24.2623171,53.882 Z" id="Shape" fill="#50E3C2"></path>
                        <ellipse id="Oval" fill="#000000" transform="translate(21.275860, 42.975605) rotate(-45.000000) translate(-21.275860, -42.975605) " cx="21.2758597" cy="42.9756046" rx="1.16925708" ry="1.15998888"></ellipse>
                        <circle id="Oval" fill="#000000" cx="16.1808725" cy="42.0363004" r="1.16463225"></circle>
                        <ellipse id="Oval" fill="#000000" transform="translate(17.882526, 46.338537) rotate(-45.000000) translate(-17.882526, -46.338537) " cx="17.8825262" cy="46.3385374" rx="1.16925708" ry="1.15998888"></ellipse>
                        <ellipse id="Oval" fill="#000000" transform="translate(8.424946, 48.100531) rotate(-45.000000) translate(-8.424946, -48.100531) " cx="8.42494637" cy="48.100531" rx="1.16925708" ry="1.15998888"></ellipse>
                        <path d="M24.1453902,14.152 C24.1453902,15.66 23.8530732,17.052 23.268439,18.212 C23.0930488,18.56 23.268439,19.024 23.6192195,19.198 C23.7361463,19.256 23.8530732,19.256 23.9115366,19.256 C24.2038537,19.256 24.4377073,19.082 24.5546341,18.85 C25.1977317,17.516 25.5485122,15.892 25.5485122,14.152 C25.5485122,12.412 25.1977317,10.788 24.5546341,9.454 C24.0284634,8.352 23.6776829,6.902 23.6776829,5.394 C23.6776829,3.886 23.97,2.494 24.5546341,1.334 C24.7300244,0.986 24.5546341,0.522 24.2038537,0.348 C23.8530732,0.174 23.3853659,0.348 23.2099756,0.696 C22.566878,2.03 22.2160976,3.654 22.2160976,5.394 C22.2160976,7.076 22.566878,8.758 23.2099756,10.092 C23.8530732,11.252 24.1453902,12.644 24.1453902,14.152 Z" id="Shape" fill="#50E3C2"></path>
                        <path d="M19.1175366,15.892 C19.2344634,15.892 19.3513902,15.892 19.4098537,15.834 C19.7606341,15.66 19.9360244,15.196 19.7606341,14.848 C19.2344634,13.746 18.8836829,12.296 18.8836829,10.788 C18.8836829,9.28 19.176,7.888 19.7606341,6.728 C19.9360244,6.38 19.7606341,5.916 19.4098537,5.742 C19.0590732,5.568 18.5913659,5.742 18.4159756,6.09 C17.772878,7.424 17.4220976,9.048 17.4220976,10.788 C17.4220976,12.528 17.772878,14.152 18.4159756,15.486 C18.5913659,15.776 18.8252195,15.892 19.1175366,15.892 Z" id="Shape" fill="#50E3C2"></path>
                        <path d="M29.6409512,16.124 C29.757878,16.182 29.8748049,16.182 29.9332683,16.182 C30.2255854,16.182 30.459439,16.008 30.5763659,15.776 C31.2194634,14.442 31.5702439,12.818 31.5702439,11.078 C31.5702439,9.396 31.2194634,7.714 30.5763659,6.38 C30.4009756,6.032 29.9332683,5.858 29.5824878,6.032 C29.2317073,6.206 29.0563171,6.67 29.2317073,7.018 C29.757878,8.12 30.1086585,9.57 30.1086585,11.078 C30.1086585,12.586 29.8163415,13.978 29.2317073,15.138 C29.1732439,15.486 29.2901707,15.95 29.6409512,16.124 Z" id="Shape" fill="#50E3C2"></path>
                    </g>
                    <text id="Coffee" font-family="GlassAntiqua-Regular, Glass Antiqua" font-size="25" font-weight="normal" line-spacing="8" letter-spacing="2.75" fill="#4A4A4A">
                        <tspan x="0" y="100">Coffee</tspan>
                    </text>
                </g>
                <g id="tea-ceremony" transform="translate(0.000000, 136.000000)">
                    <text id="Tea-Ceremony**" font-family="GlassAntiqua-Regular, Glass Antiqua" font-size="25" font-weight="normal" letter-spacing="2.75" fill="#4A4A4A">
                        <tspan x="52.6875" y="73">Tea</tspan>
                        <tspan x="0.993750954" y="99">Ceremon</tspan>
                        <tspan x="101.293751" y="99" letter-spacing="4.85416603">y**</tspan>
                    </text>
                    <g id="vector-tea" transform="translate(41.000000, 0.000000)" fill-rule="nonzero" fill="#50E3C2">
                        <path d="M58.5763635,11.8523084 C56.7074254,10.4253456 54.4163697,9.66166035 52.0650415,9.6818677 C50.5193986,9.68966411 48.9880167,9.97805996 47.545418,10.5330209 L47.6645794,10.6521824 C46.4781121,9.58225275 45.1628646,8.66443874 43.7492747,7.91998057 C43.7492747,4.78773678 38.8125861,3.80039906 35.2377427,3.47696084 L35.2377427,3.32375326 C35.2377427,1.48809502 33.7496476,0 31.9139894,0 C30.0783312,0 28.5902361,1.48809502 28.5902361,3.32375326 L28.5902361,3.47696084 C25.0068811,3.80039906 20.0787041,4.78773678 20.0787041,7.80933065 C16.8745468,9.61174855 14.2177058,12.1800281 12.4183253,15.3250134 C12.5034406,15.1803174 12.5800444,15.0271098 12.6651597,14.8909253 C12.5006034,14.4823718 12.3388843,14.0709811 12.1800024,13.6567532 C10.894761,10.3287441 9.43928904,6.54962391 5.03882697,5.31545176 C4.71469775,5.22458137 4.37960351,5.17875652 4.04297772,5.17926725 C3.09586605,5.18955518 2.18615658,5.5504066 1.48951811,6.19213956 L1.29375287,6.37088174 C0.402735557,7.18784252 -0.0513989189,8.37679181 0.0680922564,9.57972932 C0.179057803,10.7394681 0.83677572,11.7766387 1.83849092,12.3715118 C3.66847031,13.4694995 4.54515811,15.7761246 5.4729151,18.133819 C6.32406831,20.2702136 7.17522151,22.5853503 8.87752792,24.2961682 L2.32364825,24.2961682 L2.32364825,25.9984746 C2.24979758,29.593021 3.24838814,33.1280909 5.19203455,36.1527324 L2.55345961,36.1527324 C1.14322281,36.1527324 0,37.2959552 0,38.706192 L0,39.7701335 C0,41.1803703 1.14322281,42.3235931 2.55345961,42.3235931 L23.4407593,42.3235931 C24.4249139,42.3192494 25.3189724,41.7497011 25.7388729,40.8596096 C28.0454981,40.9106788 31.0926266,40.9447249 35.1015582,40.9447249 C43.6811825,40.9447249 44.5238241,40.7830058 45.0600506,40.2808254 C46.5538629,39.3352789 47.9112742,38.1897841 49.0945168,36.8762126 C53.3713093,36.4322173 57.2443771,34.1524805 59.7083973,30.6287481 C64.3471823,24.3387259 63.8364903,15.9293322 58.5763635,11.8523084 Z M31.9267567,1.78316596 C32.8055042,1.80216383 33.502508,2.52985995 33.4836442,3.40861031 C33.4647804,4.28736067 32.7371905,4.98447552 31.8584373,4.9657457 C30.9796841,4.94701588 30.2824583,4.2195324 30.3010541,3.34077633 C30.3287949,2.4656843 31.0512789,1.77346149 31.9267567,1.78316596 Z M29.1605088,5.18777878 C29.8273743,6.18575313 30.9799571,6.74731962 32.1768616,6.65741958 C33.3737661,6.56751954 34.4295313,5.84008302 34.939839,4.75369065 C34.8719469,4.90443371 34.7922583,5.04958081 34.7015161,5.18777878 C38.9572822,5.51972853 42.0554798,6.59218157 42.0554798,7.86039984 C42.0554798,9.39247561 37.5188333,10.6436708 31.9267567,10.6436708 C26.3346801,10.6436708 21.7980336,9.40098714 21.7980336,7.86039984 C21.7980336,6.5751585 24.9132543,5.511217 29.1519973,5.17926725 L29.1605088,5.18777878 Z M2.68113259,10.9415744 C2.12864893,10.599182 1.77113038,10.0152067 1.71743044,9.36745126 C1.66373051,8.71969582 1.92020438,8.0848196 2.40876357,7.65612307 L2.60452881,7.4773809 C3.13205866,6.98684522 3.8740104,6.80055431 4.57069271,6.98371204 C9.12436235,8.26895338 9.85635411,13.0354113 11.6352643,16.8570892 C10.7342929,18.8197513 10.1868303,20.9260414 10.0180732,23.0790191 C6.75815644,19.7510101 6.84327176,13.4269418 2.68113259,10.9415744 Z M4.03446619,26.0325208 L20.5298153,26.0325208 C20.5298153,30.1861484 19.2275509,33.8716418 17.2188293,36.1867785 L7.34545215,36.1867785 C5.33673059,33.8631302 4.02595466,30.1861484 4.02595466,26.0325208 L4.03446619,26.0325208 Z M22.7598367,29.8627102 C23.2024364,29.8627102 23.4748054,30.1180561 23.4748054,30.2627522 C23.4748054,30.4074482 23.2024364,30.6627942 22.7598367,30.6627942 C22.317237,30.6627942 22.044868,30.4074482 22.044868,30.2627522 C22.044868,30.1180561 22.3087255,29.8541986 22.7513252,29.8541986 L22.7598367,29.8627102 Z M22.7598367,32.3651006 C23.5748124,32.4690217 24.3764278,32.092571 24.8169191,31.3990637 C25.2574105,30.7055564 25.2574105,29.819948 24.8169191,29.1264407 C24.3764278,28.4329334 23.5748124,28.0564827 22.7598367,28.1604038 C22.538729,28.1620676 22.3186466,28.1906497 22.1044487,28.2455191 C22.1044487,27.8880347 22.172541,27.5220389 22.189564,27.156043 C22.3754209,27.1261249 22.56312,27.1090614 22.7513252,27.1049738 C23.9869955,26.9227868 25.2150356,27.4800702 25.8915669,28.5300123 C26.5680983,29.5799545 26.5680983,30.9285268 25.8915669,31.978469 C25.2150356,33.0284111 23.9869955,33.5856945 22.7513252,33.4035075 C22.1434508,33.4020168 21.5438748,33.2623098 20.9979496,32.994954 C21.1256225,32.6544927 21.244784,32.3055199 21.3469224,31.9565471 L21.3469224,31.9565471 C21.7682889,32.2189342 22.2549424,32.3575567 22.7513252,32.3565891 L22.7598367,32.3651006 Z M24.300424,39.8126911 C24.300424,40.2827701 23.9193497,40.6638443 23.4492708,40.6638443 L2.55345961,40.6638443 C2.08338068,40.6638443 1.70230641,40.2827701 1.70230641,39.8126911 L1.70230641,38.7317266 C1.70230641,38.2616476 2.08338068,37.8805734 2.55345961,37.8805734 L23.4407593,37.8805734 C23.9108382,37.8805734 24.2919125,38.2616476 24.2919125,38.7317266 L24.300424,39.8126911 Z M43.9961091,38.9870725 C43.9961091,39.3105107 33.2800903,39.3445569 26.0027304,39.1743262 L26.0027304,38.7402381 C26.0027304,37.3300013 24.8595076,36.1867785 23.4492708,36.1867785 L19.3552239,36.1867785 C19.7055185,35.6662188 20.021129,35.1231413 20.3000039,34.5610759 C21.0659016,34.9252007 21.9032767,35.1141916 22.7513252,35.1143255 C24.6034764,35.304602 26.4023614,34.4237416 27.3877826,32.8439902 C28.3732037,31.2642389 28.3732037,29.2612655 27.3877826,27.6815141 C26.4023614,26.1017628 24.6034764,25.2209023 22.7513252,25.4111789 L22.2236102,25.4111789 L22.2236102,24.3302143 L11.677822,24.3302143 C11.7915774,18.1262642 15.262117,12.4723805 20.7426036,9.56270625 C22.9641135,12.1842581 30.2584964,12.3374657 31.9267567,12.3374657 C33.595017,12.3374657 40.8893999,12.1842581 43.1109098,9.56270625 C48.6583818,12.5051115 52.1430375,18.2551202 52.184203,24.5344911 L52.184203,24.5344911 C52.1452421,30.4457662 49.0423843,35.9136267 43.9875976,38.978561 L43.9961091,38.9870725 Z M51.7756494,15.9633783 L52.0820646,15.9633783 C53.0869996,15.945946 54.0691736,16.2633559 54.8738471,16.8656007 C57.4273067,18.8232531 57.4273067,23.4620381 54.8057548,26.9858123 C54.4113625,27.5206668 53.9667401,28.0165917 53.4779558,28.4668189 L53.4779558,28.4668189 C54.4016395,24.2369892 53.7986049,19.8167455 51.7756494,15.9889129 L51.7756494,15.9633783 Z M58.3635752,29.6499219 C56.5115067,32.2599262 53.7994034,34.1342909 50.7031964,34.9440948 L50.7031964,34.9440948 C51.5158021,33.7580858 52.1870876,32.481215 52.7034064,31.13944 C54.0465115,30.3193541 55.21029,29.2366348 56.1250423,27.956127 C59.2998438,23.6322687 59.1806823,18.0316806 55.8611848,15.4867326 C54.7588889,14.6557766 53.4112651,14.2155529 52.0309954,14.2355373 C51.6113807,14.2411093 51.192923,14.2809624 50.7798002,14.3546988 L50.8308694,14.4398141 C50.2302573,13.5320266 49.5524996,12.6777101 48.8051247,11.8863545 L48.8817285,11.9629583 C51.7985626,10.9658424 55.0186902,11.4585569 57.5039105,13.2822458 C62.0831147,16.7294162 62.4405991,24.0663569 58.3550637,29.6328988 L58.3635752,29.6499219 Z" id="Shape"></path>
                    </g>
                </g>
                <g id="start-end" transform="translate(139.000000, 0.000000)">
                    <text id="Sleep…?" font-family="GlassAntiqua-Regular, Glass Antiqua" font-size="28" font-weight="normal" letter-spacing="4.85416603" fill="#4A4A4A">
                        <tspan x="71" y="921">Sleep…?</tspan>
                    </text>
                    <path d="M0,174 L120,174" id="Line" stroke="#979797" stroke-width="2" stroke-linecap="square"></path>
                    <path d="M0,569 L120,569" id="Line" stroke="#979797" stroke-width="2" stroke-linecap="square"></path>
                    <path d="M0,371 L120,371" id="Line" stroke="#979797" stroke-width="2" stroke-linecap="square"></path>
                    <path d="M0,766 L120,766" id="Line" stroke="#979797" stroke-width="2" stroke-linecap="square"></path>
                    <path d="M119,470 L239,470" id="Line" stroke="#979797" stroke-width="2" stroke-linecap="square"></path>
                    <path d="M119,667 L239,667" id="Line" stroke="#979797" stroke-width="2" stroke-linecap="square"></path>
                    <path d="M119,273 L239,273" id="Line" stroke="#979797" stroke-width="2" stroke-linecap="square"></path>
                    <path d="M119,109.5 L119,851" id="Line" stroke="#9B9B9B" stroke-width="4" stroke-linecap="square"></path>
                    <circle id="Oval" stroke="#50E3C2" stroke-width="4" fill="#50E3C2" cx="119" cy="866" r="15"></circle>
                    <circle id="Oval" stroke="#50E3C2" stroke-width="4" cx="119" cy="91" r="15"></circle>
                    <text id="Arrival-11:00am---1:" font-family="GlassAntiqua-Regular, Glass Antiqua" font-size="28" font-weight="normal" line-spacing="29" letter-spacing="4.85416603">
                        <tspan x="67.3044189" y="23" fill="#4A4A4A">Arrival</tspan>
                        <tspan x="170.695581" y="23" font-size="30" fill="#4A4A4A"></tspan>
                        <tspan x="14.5695887" y="52" font-size="20" fill="#7C7C7C">11:00am - 1:30pm*</tspan>
                    </text>
                    <text id="2:30pm" font-family="GlassAntiqua-Regular, Glass Antiqua" font-size="22" font-weight="normal" letter-spacing="3.55972195" fill="#4A4A4A">
                        <tspan x="23" y="359">2:30pm</tspan>
                    </text>
                    <text id="6:30pm" font-family="GlassAntiqua-Regular, Glass Antiqua" font-size="22" font-weight="normal" letter-spacing="3.55972195" fill="#4A4A4A">
                        <tspan x="19" y="559">6:30pm</tspan>
                    </text>
                    <text id="1:15am" font-family="GlassAntiqua-Regular, Glass Antiqua" font-size="22" font-weight="normal" letter-spacing="3.55972195" fill="#4A4A4A">
                        <tspan x="25" y="753">1:15am</tspan>
                    </text>
                    <text id="1:30pm" font-family="GlassAntiqua-Regular, Glass Antiqua" font-size="22" font-weight="normal" letter-spacing="3.55972195" fill="#4A4A4A">
                        <tspan x="141" y="262">1:30pm</tspan>
                    </text>
                    <text id="3:30pm" font-family="GlassAntiqua-Regular, Glass Antiqua" font-size="22" font-weight="normal" letter-spacing="3.55972195" fill="#4A4A4A">
                        <tspan x="142" y="458">3:30pm</tspan>
                    </text>
                    <text id="9:00pm" font-family="GlassAntiqua-Regular, Glass Antiqua" font-size="22" font-weight="normal" letter-spacing="3.55972195" fill="#4A4A4A">
                        <tspan x="140" y="656">9:00pm</tspan>
                    </text>
                    <text id="12:30pm" font-family="GlassAntiqua-Regular, Glass Antiqua" font-size="22" font-weight="normal" letter-spacing="3.55972195" fill="#4A4A4A">
                        <tspan x="16" y="164">12:30pm</tspan>
                    </text>
                </g>
            </g>
        </g>
    </g>
</svg>