<svg xmlns="http://www.w3.org/2000/svg" viewBox="0 0 240.82 158.15"><defs><style>.cls-1{isolation:isolate;}.cls-2{mix-blend-mode:multiply;}.cls-3,.cls-4,.cls-5,.cls-6{fill:#50e3c2;}.cls-4{font-size:21px;}.cls-4,.cls-5,.cls-6{font-family:CharisSIL-Bold, Charis SIL;font-weight:700;}.cls-5{font-size:24px;}.cls-6{font-size:25.58px;}.cls-7{fill:#929292;}</style></defs><title>Asset 1</title><g class="cls-1"><g id="Layer_2" data-name="Layer 2"><g id="OBJECTS"><g id="_Group_" data-name="&lt;Group&gt;" class="cls-2"><g id="_Group_2" data-name="&lt;Group&gt;"><path id="_Path_" data-name="&lt;Path&gt;" class="cls-3" d="M136.63,4.89l-2-.05C135.57,4.88,136.18,4.89,136.63,4.89Z"/><path id="_Path_2" data-name="&lt;Path&gt;" class="cls-3" d="M151,6.86l.38-.13C150.72,6.71,150.44,6.74,151,6.86Z"/><path id="_Path_3" data-name="&lt;Path&gt;" class="cls-3" d="M238.36,76.13l-.1.88.49,2Z"/><path id="_Path_4" data-name="&lt;Path&gt;" class="cls-3" d="M236.41,74.21s-.15-3.81-.24-3.8C236.28,71.26,236.29,72.49,236.41,74.21Z"/><path id="_Path_5" data-name="&lt;Path&gt;" class="cls-3" d="M58.9,15.9l-2,1.3C60.28,15.81,58.72,16.21,58.9,15.9Z"/><path id="_Path_6" data-name="&lt;Path&gt;" class="cls-3" d="M142.88.94c-1.26-.07-1.81,0-1.78.06C142.4,1.07,143.14,1.07,142.88.94Z"/><path id="_Path_7" data-name="&lt;Path&gt;" class="cls-3" d="M164.33,148.14,165,148C165,148,164.74,148,164.33,148.14Z"/><path id="_Path_8" data-name="&lt;Path&gt;" class="cls-3" d="M234.44,103.82c-.39.78-1,2.06-1.67,3.21A29,29,0,0,0,234.44,103.82Z"/><path id="_Path_9" data-name="&lt;Path&gt;" class="cls-3" d="M19.57,118l.24.33C21.28,119.52,20.65,119,19.57,118Z"/><path id="_Compound_Path_" data-name="&lt;Compound Path&gt;" class="cls-3" d="M236.18,70.4l-.34-2.85-.55-2.82a19.66,19.66,0,0,0-.88-2l-.71-1.5c-.39-.88-.76-1.53-1.13-2.22s-.73-1.44-1.28-2.43l-1-1.7c-.4-.65-.81-1.41-1.42-2.23,0-.51,1.29,1.24.69-.1-1-1.17-1.79-2.59-2.74-4-.46-.69-.9-1.4-1.33-2.1l-1.34-2a35.08,35.08,0,0,0-2.35-3.27,5.18,5.18,0,0,0-1.58-1.54c-3.54-3.32-1.82-1-4.18-3,.16,0,.48.12-.17-.49l-1.51-1-1-.71-.49-.3c-1-1.09,2.8,1.89-.21-.92-1.41-1.05-2.67-2-3.91-2.79s-2.32-1.61-3.45-2.3L202,26c-1.12-.7-2.26-1.44-3.48-2.27-7.33-4,2.6,2.63-3.48-.91-.69-.89-1.27-1.74-5.18-3.8A44.23,44.23,0,0,1,184,17.27l.48-.49L180.19,15c-1.11-.44-1.77-.79-1.7-1a61.25,61.25,0,0,1-6.32-2.09c-5.39-1.4,3.51,2.47,4.58,3.22-1.22-.61-2.39-1.07-3.48-1.48l-3-1.15a27.66,27.66,0,0,1-4.91-2.06l4.69,1.2a38.79,38.79,0,0,0-9-2.5,12.57,12.57,0,0,1-5-1.58c1.73.42,3.66.74,4.9.92s1.81.16.83-.27c0,0-1.27-.26-2.55-.44l-2.56-.39c-.56-.3,2.91.52.63-.18-1.46-.21-4.49-.44-5.83-.46l.08,0s-2.29-.42-4.59-.71l-3.17-.44-1.44-.15c1.75.23,2.21,0,.45-.19l-3-.19c-1.52-.11-3-.14-3-.14,1.87,0,0-.36-2.73-.69-7.85-.69-6.34,1-12.4.27.89,0,1,0,1.93,0l-3.13-.34c-.17.33-1.4.54-3.16.66-.88.06-1.9.11-3,.14l-3.38.2c-2.3.1-4.58.33-6.33.57s-3,.55-3.08.91c-2.23,0-2.32-.09-1.14-.32.59-.11,1.48-.28,2.59-.46s2.42-.39,3.84-.66h-4c-.45,0-.74,0-.74,0,1.91-.24,3.53-.25,5.58-.56A54,54,0,0,0,92.18,6.88c-1.19.08-.77-.24-.88-.43s-.77-.23-4.08.5a17.59,17.59,0,0,0-3.72,1c-.34.18,0,.23.51.24,1,0,2.37-.05-.41.64l-2.1.1L80,9l-.65.05c-7,2.26-12.31,3.48-18.13,5.59a11.63,11.63,0,0,0-2.18,1.07C52.83,17.89,46.85,22,42.53,24.31c.91-.73-2.63,1.07-3.22,1.26l-1.15.79c-.68.48-1.56,1.17-2.45,1.83s-1.77,1.34-2.4,1.88L32.26,31a19.69,19.69,0,0,0,2.53-2.36,4.4,4.4,0,0,0,.53-1.05,24.66,24.66,0,0,0-2.63,2.06c-.69.6-1.29,1.14-2,1.73.84-.81,1.69-1.63.4-.88l-1.11,1-2.33,2.23c-.86.79-1.64,1.66-2.25,2.29l-1,1.06c.45-.32,1.26-1,1.93-1.61-1.74,1.55-5.18,5.19-7.52,7.52.08-.32.72-1.27.8-1.59A20.44,20.44,0,0,0,22,38.94a23.62,23.62,0,0,0,1.43-2C19,41.57,22.24,38,19.86,40c-3.07,3.41-3.72,5.27-2.73,4.54-.81,1-1.52,1.77-2.09,2.53S14,48.55,13.5,49.24a19.31,19.31,0,0,0-1.37,2.27,29,29,0,0,0-1.48,3l0-1.14-1,2.16c-.25.54-.52,1.08-.7,1.49l-.27.69a19.42,19.42,0,0,1,.54-1.89l.6-1.89c-.57,1-1,1.79-1.33,2.41a11.82,11.82,0,0,0-.6,1.46,3.22,3.22,0,0,0-.23,1.29c0,.61-.15,1.27-1.8,6.06L5.34,65c-.22,1-.35,1.78-.45,2.5s-.07,1.37-.12,2a13.18,13.18,0,0,1-.22,1.77,12.56,12.56,0,0,1-.45,2c-.08,1.9.28.3.54-.64s.38-1.26,0,3.1c-.15.76-.31,2-.45,3.33s-.07,2.82,0,4.1c.27,1.4.35.84.33-.27a36,36,0,0,0,0-3.69c.26,6.6.6,8.64.54,10.6a15.81,15.81,0,0,0,.41,3.29c.08.35.16.73.27,1.15l.47,1.35a26.67,26.67,0,0,0,1.49,3.5c-.67-2-.11-1.26.13-1.19s.06-.45-1.39-5c.33,1.1.77,2.15,1.09,3.25s.7,2.17,1.1,3.25l.6,1.63c.24.53.49,1.05.76,1.58a16.58,16.58,0,0,0,1.86,3s-.55-.59-1.07-1.2l-1-1.26A26.57,26.57,0,0,0,12.34,107l-.61-.09c1.93,2.36,3.5,4.66,5,6.66A23.19,23.19,0,0,0,19,116.3a9.45,9.45,0,0,0,2.34,1.89c-2.37-1.19,3.16,3.21,4.78,5a33.75,33.75,0,0,1-3.36-2.77c-1.12-1.12-2.35-2.24-3.33-3.4-2.07-2.22-3.59-4.2-4.12-4.21a18.64,18.64,0,0,0,2.07,2.66A23.71,23.71,0,0,1,19.57,118c-1.12-1.11-2.85-2.67-3.32-3.07a42.67,42.67,0,0,0,3.39,4c1.14,1.1,2.18,2.09,3.21,2.94l3,2.3c1,.7,1.94,1.35,2.87,2.06l-1-.8c-.6-.49-1.44-1.1-2.2-1.8l-2.14-1.87a12.87,12.87,0,0,1-1-.88c.5,0,1.2.57,2.05,1.32a12.09,12.09,0,0,0,2.91,2.17A26.2,26.2,0,0,0,31.71,128l2.1,1.46c.7.46,1.38.94,2,1.47-.73-.51-.83-.48-1.56-1,1.86,1.26,3.32,2.39,4.6,3.28s2.24,1.76,3.14,2.42a29.16,29.16,0,0,0,4.55,3.25c.78.43,1.75.92,2.74,1.39s2,.85,2.87,1.17c1.71.64,2.76.91,1.72.25,1.36.51-1.39-.7-3.85-1.88s-4.5-2.51-2-1.79a15.12,15.12,0,0,0,3.39,2.16,43.45,43.45,0,0,0,4.27,1.8c1.61.57,3.37,1.27,5.42,2,1,.37,2.1.78,3.24,1.25s2.38.9,3.69,1.44c-4.81-1.16,2.55,1.55-1.74.46a38.94,38.94,0,0,0,4.94,1.34c1,.19,1.67.26,2.86.43,0,0,.36.2.73.39l.74.38a37.66,37.66,0,0,0,4.82.46c.44,0,1,.09,2.07.26s2.71.48,5.34.83c-3.55-.36,4.09,1.3,1.38,1.07,1.44.3,2.89.48,4.24.63s2.6.28,3.68.28h-.39c2.68.25,4.55.5,6,.67s2.54.29,3.57.42,2,.25,3.4.31,3.08.16,5.53.09l-1-.24c6.41-.11,13.65-.3,20.92-.93a150,150,0,0,0,21-3.19l-.72.13c-.43.08-1,.18-1.58.25l-2.3.33c1.43-.1,8.65-2.06,12.69-2.84-.79.23-2.14.67-2.89.84.17.2,1.82.2,4.91-.58l1.07-.71,1.32-.08c4.65-1.38-1.51-.08,3.11-1.53a17.57,17.57,0,0,0,4.44-1c2-.69,4.55-1.56,7-2.63s5-2.19,7.11-3.11a38.67,38.67,0,0,1,4.9-2.05c1.25-1.16-.75,0-2.78,1s-4,1.95-2.54.86a50,50,0,0,0,4.85-2.12s-.29,0-.59.05l-.59,0a113.24,113.24,0,0,0,14.76-8.81,72.12,72.12,0,0,0,12-10.53l-.28.46c3.25-3.3,4.71-5.38,5.6-7.27.36-.33.09.21-.12.65s-.41.79.22.13c1.91-3.66,4.15-7,6-10.17s3.25-6.23,3.47-8.76c.34.44,1.58-1.83,2.34-3.82s1.48-3.53,1.48-1.17c.08,0,.35-3.49.35-3.49a7.22,7.22,0,0,1,0,2.26c-.09,1.12-.41,2.5-.67,3.91s-.73,2.8-1,4a17.63,17.63,0,0,0-.59,2.69l-.68,1.61c-.44.95-1.1,2.18-1.72,3.42s-1.4,2.39-1.92,3.28A15.21,15.21,0,0,1,232,107c.39-.18-.25,1.56.74.07-1.41,2.35-2.63,4.43-.47,1.52a100.76,100.76,0,0,1-28.62,27.09,119,119,0,0,1-35.53,15.47c-1.64.54-.63.48,0,.43-4.68.69-4.26,1.46-6.74,2.2l-1.08.1-2.38.21-2.37.21-1.08.06c-2.69.76-.5.63-.67.84-1.6.3-3.19.65-4.79.88l-4.77.67c-3.17.33-6.29.65-9.34.79s-6,.25-8.89.4-5.63.19-8.26.23c-3.34-.37.8-.7-3.6-.88,3,.5-.23.6-3.72.46l-2.58-.07-2.12-.1c-1.14,0-1.61,0-.67.25A35.23,35.23,0,0,0,101,157c-1.64-.28-3.42-.52-5-.76-3.15-.57-5.52-1.08-4.46-1.59-5.17-1-4.39-.21-2.92.2-6-1.09-10.82-2.32-15.78-3.22-1.57-.63-8.36-2.44-15.13-5.19s-13.49-6.27-15.59-8.12c1.47,1.2,1.37,1.24.48.79l-4.15-2.21,1.24,1.1L41,139s-1.78-1-3.49-2.12c-.86-.55-1.73-1.08-2.37-1.51L34,134.66c-1.41-.89-1.78-1.18-1.75-1.22-1.11-.83.42,0-2.3-2.26-2.23-1.65-3.37-2.56-4.33-3.2s-1.71-1-2.94-2l.58.64-2.84-2.53c-2-1.89,7.66,6.23,1.16-.11a4.11,4.11,0,0,1-.84-.49c-.45-.33-1.05-.8-1.69-1.34s-1.33-1.13-1.92-1.74a12.91,12.91,0,0,1-1.41-1.77c.77.88,1.33,1.5,1.75,1.9a3.32,3.32,0,0,0,.8.61c.24.07-.06-.43-.59-1.1l-2.14-2.45c-.55-.6-1-1.24-1.42-1.73l-.62-.8.77,2.16a62.65,62.65,0,0,1-13-25.57A55.4,55.4,0,0,1,2.81,62.13C3.08,62.36,4.18,59,5.65,56c.72-1.51,1.55-2.91,2.11-3.84s1-1.3,1-.81l-.47.6c-1.09,2.17-.75,1.95.05.74.39-.61,1-1.4,1.58-2.29s1.18-1.83,1.74-2.63c-1.29,1.6-.44,0,0-1.07.23-.52.36-.88.06-.61a9.3,9.3,0,0,0-.8,1,22.72,22.72,0,0,0-1.62,2.34l.58-1.08L11.3,46c.51-.84,1-1.68,1.46-2.27l.7-1c.58-2.32,4.1-6.34,8.8-10.37A173.54,173.54,0,0,1,37.76,21.06c-.67.5-.81.7-.86.8,1.08-.74,2.18-1.53,3.36-2.22s2.37-1.38,3.57-2c2.44-1.23,4.84-2.42,7.09-3.33s4.27-1.7,5.88-2.32,2.79-1,3.33-1.32l1,.14c2-1,3.61-1.65,5-2.23a40.91,40.91,0,0,1,3.91-1.46,85.78,85.78,0,0,1,10.6-2.65c-.12.11-1.28.51.38.25,2.4-.9,4.84-1.89,12-2.9l-.27.2,1.75-.28c1-.18,2.46-.36,3.87-.53s2.82-.36,3.88-.47l1.77-.16c0,.38,1.22.41,3.08.27s4.39-.34,7-.58c5.28-.37,11-.45,12.7.45a49.11,49.11,0,0,1,6.56-.13l4.19.19c1.33.06,2.54.18,3.46.23,0,.07.24.16.84.3a33.42,33.42,0,0,1,8.47,1L155,3.43c1.48.36,2.84.74,4,1,3.12.49,1.85-.06.56-.61,3,1,7.19,1.9,10.92,2.79,1.88.4,3.6.9,5,1.27a16.38,16.38,0,0,1,3,1c4.29,1.67,1.4,1.15,2.46,1.91,3.2,1.16,3,.79,3.15.54s.46-.31,4.54,1.84c-1-.41-2.83-1.12-2.16-.74A44.17,44.17,0,0,1,192.14,16a35.78,35.78,0,0,0,5.54,3.59l-1.86-1.36a44.83,44.83,0,0,1,4.38,2.48c1.42,1,2.8,2,4,2.9,2.42,1.93,4.31,3.4,5,3.33l-.19-.75c2.1,1.78,3.39,2.81,4.23,3.57s1.32,1.09,1.79,1.44a16.15,16.15,0,0,1,1.78,1.51,49,49,0,0,1,3.91,4l-.15,0c3.48,3.41,4.6,5.88,6.67,7.28l-1-1.38a61.19,61.19,0,0,1,3.76,5.12c.47.69.87,1.43,1.4,2.3l.86,1.45c.31.54.6,1.16,1,1.85.2.31.67,1.11,1.13,1.95a14.67,14.67,0,0,1,.88,2.18,5.24,5.24,0,0,1,1.2,2.08,39,39,0,0,1,1.69,4.92A49.11,49.11,0,0,1,239.88,74h0c-.65-4.75-.65-2.41-.75-1,.11.37.19.71.29,1.06l-.61.06-.27-1.7c0,.46,0,1.06,0,1.73l-.5,0c-.23-1-.45-2-.66-2.82a17.66,17.66,0,0,0-.71-1.93C236.24,68.51,236,68.6,236.18,70.4ZM32,132.89l1,.83C33.74,134,34.48,134.4,32,132.89Zm140-121c-2.17-.91-3.29-1.44-4.93-1.37C168,11.06,170.72,11.48,172,11.86Z"/><path id="_Path_10" data-name="&lt;Path&gt;" class="cls-3" d="M236.65,74.46a1,1,0,0,1,.19-.6C236.7,73.33,236.61,73.33,236.65,74.46Z"/><path id="_Path_11" data-name="&lt;Path&gt;" class="cls-3" d="M59.27,15.66l-.2.08a.56.56,0,0,0-.17.16Z"/><path id="_Path_12" data-name="&lt;Path&gt;" class="cls-3" d="M239.83,90.12l.49-2a12.64,12.64,0,0,0,.3-1.37l.11-.63-.33,1.28L240,88.69Z"/><path id="_Path_13" data-name="&lt;Path&gt;" class="cls-3" d="M240.13,82.36l.69-.91L240.32,79A20.56,20.56,0,0,1,240.13,82.36Z"/><path id="_Path_14" data-name="&lt;Path&gt;" class="cls-3" d="M181.46,16.68l.32,0a11.82,11.82,0,0,0-2.93-1.38l1.31.69Z"/><path id="_Path_15" data-name="&lt;Path&gt;" class="cls-3" d="M131.82,5.13l.88.08-.8-.36-.81-.33Z"/><path id="_Path_16" data-name="&lt;Path&gt;" class="cls-3" d="M89,8.27c1.72-.32,3.73-.75,5.48-1C90.75,7.92,88.44,7.65,89,8.27Z"/></g><g id="_Group_3" data-name="&lt;Group&gt;"><path id="_Path_17" data-name="&lt;Path&gt;" class="cls-3" d="M129.18,47.25l-1.11,0C128.6,47.29,128.94,47.27,129.18,47.25Z"/><path id="_Path_18" data-name="&lt;Path&gt;" class="cls-3" d="M137.12,48l.22-.17C137,47.88,136.8,47.94,137.12,48Z"/><path id="_Path_19" data-name="&lt;Path&gt;" class="cls-3" d="M191.53,77.4l-.11.5L191.9,79Z"/><path id="_Path_20" data-name="&lt;Path&gt;" class="cls-3" d="M189.6,76.53v-.31a4.44,4.44,0,0,0,0-.69l-.12-1C189.43,75,189.58,75.62,189.6,76.53Z"/><path id="_Path_21" data-name="&lt;Path&gt;" class="cls-3" d="M86.13,51.63,85,52.39C86.93,51.86,86,51.88,86.13,51.63Z"/><path id="_Path_22" data-name="&lt;Path&gt;" class="cls-3" d="M132.7,42.89c-.7,0-1,.08-1,.18C132.43,43.05,132.84,43,132.7,42.89Z"/><path id="_Path_23" data-name="&lt;Path&gt;" class="cls-3" d="M144.52,108.87l.36,0C144.91,108.79,144.75,108.82,144.52,108.87Z"/><path id="_Path_24" data-name="&lt;Path&gt;" class="cls-3" d="M188.18,92.9a15.66,15.66,0,0,1-1.34,1.58A9.15,9.15,0,0,0,188.18,92.9Z"/><path id="_Path_25" data-name="&lt;Path&gt;" class="cls-3" d="M62.27,97.75l.16.16C63.39,98.34,63,98.11,62.27,97.75Z"/><path id="_Compound_Path_2" data-name="&lt;Compound Path&gt;" class="cls-3" d="M189.43,74.53a3.78,3.78,0,0,0-.07-.47l-.23-1a7,7,0,0,0-.28-1l-.15-.46a19.51,19.51,0,0,0-1.34-1.61c-.33-.4-.63-.67-.92-1a25.88,25.88,0,0,0-2.87-2.72c0-.35,1,.36.56-.34a23.4,23.4,0,0,1-3.83-3.6c-.59-.6-1.13-1.15-1.58-1.55s-.84-.6-1.08-.55c-2.3-1.33-1.26-.08-2.78-.8.11,0,.32-.08-.09-.34,0,0-.48-.16-1-.28l-1-.25c-.62-.55,1.77.57-.09-.7-3.58-1.46-5.74-2.09-8.64-3.5-4.32-1.49,1.46,1.63-2.1.19-.39-.59-.7-1.22-3-2a12.88,12.88,0,0,1-3.36-.17l.31-.58c-1.94-.52-3.53-.79-3.43-1.26a14.65,14.65,0,0,1-3.59-.7c-3.05-.3,1.93,1.71,2.53,2.17-2.78-1.17-4.86-1.28-6.4-2.35l1.32.16,1.32.17a13.33,13.33,0,0,0-5.06-.93,3.9,3.9,0,0,1-2.77-.86c1.93.3,4.29.38,3.21-.16l-1.43-.06c-.71,0-1.43,0-1.43,0-.31-.21,1.62.1.36-.27-.82,0-2.5.13-3.25.26l0,0-2.54-.23c-1.27-.11-2.55-.18-2.55-.18,1,.11,1.22-.11.25-.22l-1.68,0-1.68.07c1-.1,0-.36-1.5-.55-4.32-.37-3.49,1.29-6.81.6.49,0,.57-.06,1.06,0l-1.72-.31c-.18.69-2.7.71-5.22.85s-5,.34-5.16,1c-2.45-.36-.2-.33,2.89-1.15l-2.62-.23c1.05-.11,1.94-.07,3.07-.26a20.22,20.22,0,0,0-8.41,1.16c-1.32,0,.91-1.14-2.77-.48-5.17,1,1.11.85-2,1.43,0,0-.59-.11-1.18-.18l-1.18-.17c-3.87,1.18-6.89,1.31-10.2,2.06a4.33,4.33,0,0,0-1.23.53c-3.58.62-7,2.79-9.56,3.54.54-.36-1.59.13-2,.11l-.68.35c-.41.21-.95.49-1.47.8l-1.45.82c-.39.22-.65.39-.65.39,1.84-1.08,1.61-1.39,1.8-1.92a28.82,28.82,0,0,0-2.83,1.69c.5-.41,1-.83.21-.63l-.67.45c-.4.27-.94.63-1.45,1l-1.42,1-.62.5c.29-.09.79-.38,1.23-.59-.56.3-1.36.89-2.26,1.46a23.4,23.4,0,0,1-2.63,1.6c0-.22.44-.71.49-.92a4.71,4.71,0,0,0,2.55-1.93c-2.94,1.93-.8.38-2.38,1.07-2.05,1.44-2.49,2.51-1.78,2.38a21.7,21.7,0,0,0-2.52,2,12,12,0,0,0-1,1c-.32.4-.66.87-1.06,1.43l0-.75s-.42.49-.78,1l-.51.71a3.44,3.44,0,0,0-.22.33,2.61,2.61,0,0,1,.11-.32l.28-.69.42-1c-1.77,1.79-1.64,2.18-1.63,2.54s-.06.76-1.41,3l-.44-.2c-.74,2-.09,2.87-1,4.23,0,1,.27.19.52-.26.14-.22.24-.36.25-.18s-.06.68-.2,1.76A8.32,8.32,0,0,0,51,79a11.89,11.89,0,0,0,0,2.08c.22.69.32.39.34-.17a16.43,16.43,0,0,0,0-1.84c.08.82.08,1.49.18,2.06s.08,1,.14,1.44a9.69,9.69,0,0,1,0,1c0,.3,0,.56,0,.83s0,.52,0,.81a5.78,5.78,0,0,0,.26.94,5.33,5.33,0,0,0,.6,1.24,10.22,10.22,0,0,0,1.2,1.63c-.5-1,0-.75.17-.79s.08-.32-1.07-2.5c.3.51.6,1,.87,1.53s.54,1.06.83,1.59A7.91,7.91,0,0,0,57,91.77l-.8-.4a8.86,8.86,0,0,1-.79-.43,11.17,11.17,0,0,0,1.92,1.64l-.49.19a12.38,12.38,0,0,1,1.94,1.38c.6.46,1.11,1,1.63,1.41a14.59,14.59,0,0,0,1.53,1.15,3.82,3.82,0,0,0,1.6.53c-.8,0-.29.31.55.77a13.86,13.86,0,0,1,2.51,1.43,18.49,18.49,0,0,1-4.37-2.36c-1.36-.94-2.45-1.73-2.83-1.56a5.67,5.67,0,0,0,1.43,1.16,10,10,0,0,1,1.45,1.08,21.33,21.33,0,0,0-2.28-1c3.18,2.93,5.85,3.3,8.18,4.33,0,0-.26-.11-.64-.31l-1.39-.7c-.51-.24-1-.54-1.37-.74L64.14,99c.72-.49,1.8,1,3.23,1,1.78,1.46,3.65,1.65,5.22,2.64-.44-.21-.5-.15-.95-.36,1.11.52,2,1,2.77,1.4s1.34.84,1.85,1.2a10.49,10.49,0,0,0,2.65,1.66c1.81.76,5.49,1.36,4.3.67.79.13-.8-.3-2.22-.78s-2.62-1.08-1.12-1.1c2.34,2,5.63,1.38,11.45,3.48-2.74-.16,1.42,1-1,.79a11.71,11.71,0,0,0,4.42.27l.81.53a16,16,0,0,0,2.72-.3,33.47,33.47,0,0,1,4.12.13c-1,0-.42.23.2.44s1.31.4.55.45a19.46,19.46,0,0,0,4.39.13l-.22,0c5.9.26,4.8.84,10.2.59l-.53-.23c7-.44,15.93-.48,23.08-1.83l-2.55.16c.39,0,1.59-.25,3-.49a27.3,27.3,0,0,1,4.08-.57,14.68,14.68,0,0,1-1.61.36c.1.23,1,.49,2.77.21l.59-.5.75.16c2.61-.53-.87-.37,1.73-.91.87.38,3.69-.19,6.54-1,1.44-.36,2.86-.82,4.11-1.13a10.33,10.33,0,0,1,2.89-.53c1.45-1.32-4.82,1.5-3.16.18a15.36,15.36,0,0,0,2.85-.61l-.72-.26c3.82-1.19,6.42-2.15,8.87-3.17a41.13,41.13,0,0,0,7.65-4.21l-.18.24c2.2-1.26,3.21-2.23,3.79-3.26.55-.17-.78,1.08.1.6a31.83,31.83,0,0,1,4.42-4.66c1.41-1.39,2.68-2.79,2.83-4.21.18.18.52,0,.94-.31a14.47,14.47,0,0,0,1.24-1.34c.76-1,1.39-1.84,1.41-.42l.21-1a5.06,5.06,0,0,0,.1-.7l0-.32c.27.38,0,2-.64,3.6a31.18,31.18,0,0,0-1.43,3.78l-.61.82L188.53,92,187,93.51l-.74.64c.31,0-.15,1,.61.33-1.05,1.16-2,2.1-.33.91a67.16,67.16,0,0,1-9.26,6.31,92.62,92.62,0,0,1-9.81,4.89,78.24,78.24,0,0,1-20.64,5.82c-.92.23-.35.35,0,.43-2.66-.11-2.39.75-3.78,1.07,0,0-1-.05-1.94-.14l-1.94-.18c-1.49.47-.27.57-.36.76-7.14,1.08-14.16.54-19.95,1-1.84-.34.44-.7-2-.84,1.64.46-.13.59-2.06.57s-4-.08-3,.3c-2.31-1-8.74-.92-7.54-2.16-2.87-.4-2.46.3-1.64.51a88.48,88.48,0,0,0-8.84-1c-.89-.31-4.71-1-8.6-2s-7.84-2.46-9.08-3.48c1.71,1.34-.27.27-2.23-.18l.74.59.74.59-.66-.26c-.4-.15-.92-.36-1.44-.59l-2.08-.9c-.87-.33-1.09-.46-1.07-.51-.69-.35.3-.22-1.41-1.17a20.7,20.7,0,0,0-4.66-1.79l.38.3s-.48-.23-.94-.5l-.93-.53c-.67-.42.59.19,1.49.51s1.42.38-.67-1a5.62,5.62,0,0,1-1.72-.5,6.33,6.33,0,0,1-2.27-1.49c2.14,1.51,2.09,1,1.39.3,0,0-.76-.49-1.47-1.06l-1-.76c-.27-.2-.44-.36-.44-.36s.12.34.25.66l.27.65a36.86,36.86,0,0,1-5.9-5.54,25.42,25.42,0,0,1-4.37-7.27,19.81,19.81,0,0,1-1.27-8.71,20.79,20.79,0,0,1,2.61-8.43c.24.22,1.25-1.56,2.45-3.05s2.52-2.68,2.51-2l-.36.25c-1.73,2.1,1-.16,2.56-1.64-1.9,1.35,2.42-3.53-1.82.22l1.46-1.66,1.55-1.58c.4-1.45,2.83-3.27,5.93-4.81s6.78-2.93,9.71-4.4c-.4.24-.48.38-.51.45a35.6,35.6,0,0,1,8.32-3c2.61-.63,4.71-1,5.33-1.26l.61.36c4.59-1.85,5.19-2.07,11-2.7-.06.09-.71.34.22.3a18.27,18.27,0,0,1,6.69-1.47l-.15.17s.39-.06,1-.11l2.14-.21c.78-.08,1.56-.14,2.15-.18l1-.07c0,.75,2.67.37,5.59.09s6.09-.42,7,.42a18.43,18.43,0,0,1,3.62-.36l4.24,0c0,.07.13.14.46.24,2.48-.66,6.89.95,9.52,1.24,1.75.08,1-.29.33-.67a14.23,14.23,0,0,0,2.9.64c1.06.16,2.19.27,3.25.35a22.3,22.3,0,0,1,4.57.64c2.46.67.78.79,1.37,1.29,3.67.84-.25-1.53,4.48.43-.58-.12-1.65-.35-1.27-.15a17.4,17.4,0,0,1,3.23,2,9.41,9.41,0,0,0,3.24,1.74l-.54-.35-.55-.33a18.88,18.88,0,0,1,5,2.31c1.48.87,2.61,1.59,3.09,1.23l-.1-.57a31.67,31.67,0,0,0,3.78,2.15,15.4,15.4,0,0,1,3.72,2.38l-.11,0a19.57,19.57,0,0,1,2.6,2,4.44,4.44,0,0,0,2,1.07l-.66-.68a30.16,30.16,0,0,1,2.71,2.32,32.88,32.88,0,0,1,2.49,2.66,7.26,7.26,0,0,1,1.63,2c.3-.13,1.6,1.48,2.56,3.57A18.2,18.2,0,0,1,193,76h0a5.32,5.32,0,0,0-.37-1.37c-.11-.24-.17-.29-.22-.24a6.46,6.46,0,0,0-.13,1.08c.1.21.17.4.26.6l-.6.1s-.22-1-.24-1a8.33,8.33,0,0,1-.06,1l-.5.08C190.37,74.09,189.2,72.59,189.43,74.53ZM70,105.62l.6.41C71.07,106.08,71.53,106.15,70,105.62Zm78.85-55.91c-1.22-.43-1.83-.82-2.78-.43C146.58,49.65,148.11,49.64,148.86,49.71Z"/><path id="_Path_26" data-name="&lt;Path&gt;" class="cls-3" d="M189.82,76.64a.52.52,0,0,1,.21-.35C189.91,76,189.82,76,189.82,76.64Z"/><path id="_Path_27" data-name="&lt;Path&gt;" class="cls-3" d="M86.33,51.48l-.11,0a.26.26,0,0,0-.09.12Z"/><path id="_Path_28" data-name="&lt;Path&gt;" class="cls-3" d="M193,85.71a8.12,8.12,0,0,0,.48-1.14l.42-1.18-.74,1.46S193,85.71,193,85.71Z"/><path id="_Path_29" data-name="&lt;Path&gt;" class="cls-3" d="M193.3,81l.68-.51L193.47,79A7.07,7.07,0,0,1,193.3,81Z"/><path id="_Path_30" data-name="&lt;Path&gt;" class="cls-3" d="M154.15,52.32l.19-.11a4.15,4.15,0,0,0-1.66-.65l.74.37Z"/><polygon id="_Path_31" data-name="&lt;Path&gt;" class="cls-3" points="126.53 47.74 127.02 47.77 126.14 47.15 126.53 47.74"/><path id="_Path_32" data-name="&lt;Path&gt;" class="cls-3" d="M103,49.36c1-.08,2.06-.33,3-.41C104,49.27,102.69,48.66,103,49.36Z"/></g><text class="cls-4" transform="translate(40.04 66.81) rotate(-51.3)">N</text><text class="cls-4" transform="matrix(0.81, -0.59, 0.59, 0.81, 49.34, 55.35)">A</text><text class="cls-4" transform="translate(60.51 47.24) rotate(-26.46)">T</text><text class="cls-4" transform="translate(71.49 41.65) rotate(-18.28)">H</text><text class="cls-4" transform="translate(86.43 36.77) rotate(-11.07)">A</text><text class="cls-4" transform="translate(100.17 34.03) rotate(-4.76)">N</text><text class="cls-4" transform="translate(115.48 32.94) rotate(-0.54)"> </text><text class="cls-4" transform="matrix(1, 0.07, -0.07, 1, 121.4, 32.7)">&amp;</text><text class="cls-4" transform="translate(136.5 33.87) rotate(8.21)"> </text><text class="cls-4" transform="translate(142.34 34.49) rotate(12.98)">N</text><text class="cls-4" transform="matrix(0.95, 0.32, -0.32, 0.95, 157.19, 38.09)">I</text><text class="cls-4" transform="translate(164.05 40.17) rotate(24.63)">K</text><text class="cls-4" transform="translate(176.6 46.11) rotate(31.86)">I</text><text class="cls-4" transform="translate(182.72 49.61) rotate(40.21)">T</text><text class="cls-4" transform="matrix(0.57, 0.82, -0.82, 0.57, 192.06, 57.08)">A</text><g id="_Group_4" data-name="&lt;Group&gt;"><text class="cls-5" transform="translate(33.13 113.82) rotate(34.26)">N</text><text class="cls-5" transform="translate(49.58 124.55) rotate(24.23)">E</text><text class="cls-5" transform="matrix(0.96, 0.3, -0.3, 0.96, 63.86, 130.87)">T</text><text class="cls-5" transform="matrix(0.98, 0.18, -0.18, 0.98, 78.97, 135.58)">H</text><text class="cls-5" transform="translate(98.19 138.98) rotate(4.6)">E</text><text class="cls-5" transform="translate(113.41 140.21) rotate(-0.68)">R</text><text class="cls-5" transform="translate(131.22 139.88) rotate(-5.85)">L</text><text class="cls-5" transform="translate(145.44 138.47) rotate(-11.32)">A</text><text class="cls-5" transform="translate(162.84 134.97) rotate(-18.45)">N</text><text class="cls-5" transform="translate(181.3 128.72) rotate(-27.49)">D</text><text class="cls-5" transform="matrix(0.79, -0.62, 0.62, 0.79, 198.26, 119.56)">S</text></g><text class="cls-4" transform="translate(81.07 76.33)">JUN. 30</text><text class="cls-6" transform="translate(90.63 100.9)">2018</text><rect id="_Rectangle_" data-name="&lt;Rectangle&gt;" class="cls-7" x="23.03" y="76.22" width="11.72" height="11.72" transform="translate(66.5 3.61) rotate(45)"/><rect id="_Rectangle_2" data-name="&lt;Rectangle&gt;" class="cls-7" x="206.35" y="76.22" width="11.72" height="11.72" transform="translate(120.2 -126.02) rotate(45)"/></g></g></g></g></svg>