<?xml version="1.0" encoding="UTF-8"?>
<svg width="72px" height="71px" viewBox="0 0 72 71" version="1.1" xmlns="http://www.w3.org/2000/svg" xmlns:xlink="http://www.w3.org/1999/xlink">
    <!-- Generator: Sketch 43.2 (39069) - http://www.bohemiancoding.com/sketch -->
    <title>vector-bed</title>
    <desc>Created with Sketch.</desc>
    <defs></defs>
    <g id="Version-2" stroke="none" stroke-width="1" fill="none" fill-rule="evenodd">
        <g id="NO-DECISION" transform="translate(-476.000000, -4928.000000)" fill-rule="nonzero" fill="#50E3C2">
            <g id="accomodation" transform="translate(180.000000, 3967.000000)">
                <g id="straw-bed" transform="translate(87.000000, 961.000000)">
                    <g id="vector-bed" transform="translate(209.000000, 0.000000)">
                        <g id="Group" transform="translate(0.279846, 0.000000)">
                            <path d="M34.2810886,22.4895631 L34.2810886,22.4895631 C35.0226795,23.090216 36.0860929,23.090216 36.8136915,22.4755944 C38.6186958,20.9669778 44.4954538,15.7287255 44.4954538,11.8454345 C44.4954538,8.6605771 41.9068818,6.07637264 38.7166417,6.07637264 C37.5692747,6.07637264 36.4638845,6.41162079 35.5403939,7.02624239 C34.6169034,6.41162079 33.5115132,6.07637264 32.3641461,6.07637264 C29.173906,6.07637264 26.585334,8.6605771 26.585334,11.8454345 C26.585334,15.8125375 32.4760844,20.9949151 34.2810886,22.4895631 Z M32.3641461,10.0155384 C32.9798065,10.0155384 33.55349,10.3228492 33.8893048,10.83969 L33.8893048,10.83969 C34.6728725,12.0270272 36.4079154,12.0270272 37.1914831,10.83969 L37.1914831,10.83969 C37.5272978,10.3228492 38.1009814,10.0155384 38.7166417,10.0155384 C39.724086,10.0155384 40.5356383,10.83969 40.5356383,11.8314658 C40.5356383,13.018803 38.0869891,15.9522243 35.5264017,18.3268986 C32.9658142,15.9801616 30.5311573,13.060709 30.5311573,11.8314658 C30.5311573,10.83969 31.3567019,10.0155384 32.3641461,10.0155384 Z" id="Shape"></path>
                            <path d="M65.5538368,32.6587569 L65.5538368,9.86188296 C65.5538368,8.77232648 64.6723231,7.8923001 63.5809252,7.8923001 C60.3207237,7.8923001 57.6621903,5.23825228 57.6621903,1.98355153 C57.6621903,0.880026383 56.7806766,0 55.6892787,0 L15.3915092,0 C14.3001113,0 13.4185976,0.880026383 13.4185976,1.96958286 C13.4185976,5.22428361 10.7600641,7.87833143 7.49986266,7.87833143 C6.40846473,7.87833143 5.52695102,8.75835781 5.52695102,9.84791428 L5.52695102,32.6587569 C2.44864919,32.868287 0,35.4245541 0,38.5535368 L0,64.1301766 C0,65.219733 0.881513708,66.0997594 1.97291163,66.0997594 L6.19858052,66.0997594 L6.19858052,68.977306 C6.19858052,70.0668625 7.08009422,70.9468889 8.17149215,70.9468889 C9.26289007,70.9468889 10.1444038,70.0668625 10.1444038,68.977306 L10.1444038,66.0997594 L62.2516585,66.0997594 L62.2516585,68.977306 C62.2516585,70.0668625 63.1331722,70.9468889 64.2245701,70.9468889 C65.3159681,70.9468889 66.1974818,70.0668625 66.1974818,68.977306 L66.1974818,66.0997594 L69.0938839,66.0997594 C70.1852819,66.0997594 71.0667956,65.219733 71.0667956,64.1301766 L71.0667956,38.5535368 C71.0807879,35.4245541 68.6321387,32.868287 65.5538368,32.6587569 Z M9.47277429,11.6359044 C13.3346439,10.8536587 16.3849611,7.80848806 17.1685289,3.95313439 L53.912259,3.95313439 C54.6958267,7.80848806 57.746144,10.8536587 61.6080136,11.6359044 L61.6080136,32.6447882 L58.0679665,32.6447882 L58.0679665,26.6661963 C58.0679665,25.5766398 57.1864528,24.6966134 56.0950548,24.6966134 L39.8500165,24.6966134 C38.7586186,24.6966134 37.8771049,25.5766398 37.8771049,26.6661963 L37.8771049,32.6447882 L33.2176753,32.6447882 L33.2176753,26.6661963 C33.2176753,25.5766398 32.3361616,24.6966134 31.2447636,24.6966134 L14.985733,24.6966134 C13.8943351,24.6966134 13.0128214,25.5766398 13.0128214,26.6661963 L13.0128214,32.6447882 L9.47277429,32.6447882 L9.47277429,11.6359044 Z M54.1221432,28.6357791 L54.1221432,32.6447882 L41.8229281,32.6447882 L41.8229281,28.6357791 L54.1221432,28.6357791 Z M29.2578597,28.6357791 L29.2578597,32.6447882 L16.9586447,32.6447882 L16.9586447,28.6357791 L29.2578597,28.6357791 Z M67.1349646,62.1605937 L3.94582326,62.1605937 L3.94582326,47.6192054 L67.1349646,47.6192054 L67.1349646,62.1605937 Z M67.1349646,43.6800397 L3.94582326,43.6800397 L3.94582326,38.5535368 C3.94582326,37.4639803 4.82733697,36.5839539 5.91873489,36.5839539 L65.1480607,36.5839539 C66.2394586,36.5839539 67.1209723,37.4639803 67.1209723,38.5535368 L67.1209723,43.6800397 L67.1349646,43.6800397 Z" id="Shape"></path>
                            <path d="M12.0613463,56.8664667 L22.1357887,56.8664667 C23.2271866,56.8664667 24.1087003,55.9864404 24.1087003,54.8968839 C24.1087003,53.8073274 23.2271866,52.927301 22.1357887,52.927301 L12.0613463,52.927301 C10.9699484,52.927301 10.0884347,53.8073274 10.0884347,54.8968839 C10.0884347,55.9864404 10.9699484,56.8664667 12.0613463,56.8664667 Z" id="Shape"></path>
                            <path d="M48.9449992,56.8664667 L59.0194416,56.8664667 C60.1108395,56.8664667 60.9923532,55.9864404 60.9923532,54.8968839 C60.9923532,53.8073274 60.1108395,52.927301 59.0194416,52.927301 L48.9449992,52.927301 C47.8536013,52.927301 46.9720876,53.8073274 46.9720876,54.8968839 C46.9720876,55.9864404 47.8536013,56.8664667 48.9449992,56.8664667 Z" id="Shape"></path>
                        </g>
                    </g>
                </g>
            </g>
        </g>
    </g>
</svg>