<?xml version="1.0" encoding="UTF-8"?>
<svg width="79px" height="66px" viewBox="0 0 79 66" version="1.1" xmlns="http://www.w3.org/2000/svg" xmlns:xlink="http://www.w3.org/1999/xlink">
    <!-- Generator: Sketch 43.2 (39069) - http://www.bohemiancoding.com/sketch -->
    <title>vector-hotel</title>
    <desc>Created with Sketch.</desc>
    <defs></defs>
    <g id="Version-2" stroke="none" stroke-width="1" fill="none" fill-rule="evenodd">
        <g id="NO-DECISION" transform="translate(-473.000000, -5443.000000)" fill-rule="nonzero" fill="#50E3C2">
            <g id="accomodation" transform="translate(180.000000, 3967.000000)">
                <g id="aduard" transform="translate(87.000000, 1476.000000)">
                    <g id="vector-hotel" transform="translate(206.000000, 0.000000)">
                        <g id="Group">
                            <path d="M70.7929075,44.7228578 L52.4391907,44.7228578 L52.4391907,34.1998324 C52.4391907,31.2954774 50.089915,28.9383197 47.1952717,28.9383197 L31.4635144,28.9383197 C28.5688711,28.9383197 26.2195954,31.2954774 26.2195954,34.1998324 L26.2195954,44.7228578 L7.86587861,44.7228578 C6.41593499,44.7228578 5.24391907,45.8988058 5.24391907,47.3536141 L5.24391907,63.1381521 C5.24391907,64.5929604 6.41593499,65.7689085 7.86587861,65.7689085 L70.7929075,65.7689085 C72.2428511,65.7689085 73.414867,64.5929604 73.414867,63.1381521 L73.414867,47.3536141 C73.414867,45.8988058 72.2428511,44.7228578 70.7929075,44.7228578 Z M20.9756763,57.8766394 C20.9756763,59.3314477 19.8036604,60.5073958 18.3537168,60.5073958 L13.1097977,60.5073958 C11.6598541,60.5073958 10.4878381,59.3314477 10.4878381,57.8766394 L10.4878381,52.6151268 C10.4878381,51.1603185 11.6598541,49.9843704 13.1097977,49.9843704 L18.3537168,49.9843704 C19.8036604,49.9843704 20.9756763,51.1603185 20.9756763,52.6151268 L20.9756763,57.8766394 Z M36.7074335,57.8766394 C36.7074335,59.3314477 35.5354176,60.5073958 34.085474,60.5073958 L28.8415549,60.5073958 C27.3916113,60.5073958 26.2195954,59.3314477 26.2195954,57.8766394 L26.2195954,52.6151268 C26.2195954,51.1603185 27.3916113,49.9843704 28.8415549,49.9843704 L34.085474,49.9843704 C35.5354176,49.9843704 36.7074335,51.1603185 36.7074335,52.6151268 L36.7074335,57.8766394 Z M52.4391907,57.8766394 C52.4391907,59.3314477 51.2671748,60.5073958 49.8172312,60.5073958 L44.5733121,60.5073958 C43.1233685,60.5073958 41.9513526,59.3314477 41.9513526,57.8766394 L41.9513526,52.6151268 C41.9513526,51.1603185 43.1233685,49.9843704 44.5733121,49.9843704 L49.8172312,49.9843704 C51.2671748,49.9843704 52.4391907,51.1603185 52.4391907,52.6151268 L52.4391907,57.8766394 Z M68.1709479,57.8766394 C68.1709479,59.3314477 66.998932,60.5073958 65.5489884,60.5073958 L60.3050693,60.5073958 C58.8551257,60.5073958 57.6831098,59.3314477 57.6831098,57.8766394 L57.6831098,52.6151268 C57.6831098,51.1603185 58.8551257,49.9843704 60.3050693,49.9843704 L65.5489884,49.9843704 C66.998932,49.9843704 68.1709479,51.1603185 68.1709479,52.6151268 L68.1709479,57.8766394 Z" id="Shape"></path>
                            <polygon id="Shape" points="31.6260759 23.7951911 39.329393 19.7306725 47.0327102 23.7951911 45.5644128 15.1847256 51.7968106 9.08926315 43.1836736 7.83439238 39.329393 0 35.4751125 7.83439238 26.8619754 9.08926315 33.0943733 15.1847256"></polygon>
                            <polygon id="Shape" points="12.4674176 32.7660702 20.1707347 36.8305887 18.7024374 28.222754 24.9348352 22.1246608 16.3216981 20.86979 12.4674176 13.0353977 8.61313708 20.86979 0 22.1246608 6.23239782 28.222754 4.76147852 36.8305887"></polygon>
                            <polygon id="Shape" points="78.6587861 22.1246608 70.045649 20.86979 66.1913685 13.0353977 62.337088 20.86979 53.7239509 22.1246608 59.9563487 28.222754 58.4880514 36.8305887 66.1913685 32.7660702 73.8973076 36.8305887 72.4263883 28.222754"></polygon>
                        </g>
                    </g>
                </g>
            </g>
        </g>
    </g>
</svg>