<?xml version="1.0" encoding="UTF-8"?>
<svg width="90px" height="76px" viewBox="0 0 90 76" version="1.1" xmlns="http://www.w3.org/2000/svg" xmlns:xlink="http://www.w3.org/1999/xlink">
    <!-- Generator: Sketch 43.2 (39069) - http://www.bohemiancoding.com/sketch -->
    <title>vector-camp</title>
    <desc>Created with Sketch.</desc>
    <defs></defs>
    <g id="Version-2" stroke="none" stroke-width="1" fill="none" fill-rule="evenodd">
        <g id="NO-DECISION" transform="translate(-467.000000, -4445.000000)" fill-rule="nonzero" fill="#50E3C2">
            <g id="accomodation" transform="translate(180.000000, 3967.000000)">
                <g id="camp" transform="translate(46.000000, 478.000000)">
                    <g id="vector-camp" transform="translate(241.000000, 0.000000)">
                        <path d="M45,48.538 C45.553,48.538 46,48.09 46,47.538 L46,43.349 C46,42.797 45.553,42.349 45,42.349 C44.447,42.349 44,42.797 44,43.349 L44,47.538 C44,48.09 44.447,48.538 45,48.538 Z" id="Shape"></path>
                        <path d="M45,39.403 C45.553,39.403 46,38.956 46,38.403 L46,34.912 C46,34.36 45.553,33.912 45,33.912 C44.447,33.912 44,34.36 44,34.912 L44,38.403 C44,38.956 44.447,39.403 45,39.403 Z" id="Shape"></path>
                        <path d="M45,30.968 C45.553,30.968 46,30.52 46,29.968 L46,25.779 C46,25.227 45.553,24.779 45,24.779 C44.447,24.779 44,25.227 44,25.779 L44,29.968 C44,30.52 44.447,30.968 45,30.968 Z" id="Shape"></path>
                        <path d="M45,21.833 C45.553,21.833 46,21.385 46,20.833 L46,17.342 C46,16.79 45.553,16.342 45,16.342 C44.447,16.342 44,16.79 44,17.342 L44,20.833 C44,21.386 44.447,21.833 45,21.833 Z" id="Shape"></path>
                        <path d="M87.5,71.81 L83.557,71.81 C83.514,71.656 83.459,71.503 83.377,71.358 L47.294,7.108 L49.506,3.17 C50.047,2.207 49.704,0.987 48.741,0.447 C47.777,-0.095 46.558,0.248 46.017,1.211 L45,3.023 L43.982,1.211 C43.441,0.249 42.223,-0.095 41.258,0.447 C40.295,0.988 39.952,2.207 40.493,3.17 L42.705,7.108 L6.622,71.358 C6.54,71.504 6.485,71.656 6.442,71.81 L2.5,71.81 C1.396,71.81 0.5,72.706 0.5,73.81 C0.5,74.914 1.396,75.81 2.5,75.81 L87.5,75.81 C88.604,75.81 89.5,74.914 89.5,73.81 C89.5,72.706 88.604,71.81 87.5,71.81 Z M34.919,35.697 L26.413,50.702 C25.497,52.313 23.562,52.979 21.875,52.369 L33.938,30.89 C35.392,32.012 35.851,34.055 34.919,35.697 Z M20.885,54.132 C21.614,54.444 22.379,54.601 23.138,54.601 C25.143,54.601 27.094,53.553 28.153,51.689 L36.66,36.683 C38.138,34.078 37.349,30.796 34.931,29.122 L45,11.193 L79.042,71.81 L60.053,71.81 C60.054,71.789 60.062,71.77 60.062,71.749 L60.062,58.539 C60.062,57.392 59.128,56.459 57.982,56.459 L45.973,56.459 C45.979,56.412 46,56.371 46,56.323 L46,52.134 C46,51.582 45.553,51.134 45,51.134 C44.447,51.134 44,51.582 44,52.134 L44,56.323 C44,56.371 44.021,56.412 44.027,56.459 L32.019,56.459 C30.873,56.459 29.939,57.392 29.939,58.539 L29.939,71.749 C29.939,71.77 29.947,71.789 29.948,71.81 L10.958,71.81 L20.885,54.132 Z M45.001,59.1 L57.708,71.81 L32.292,71.81 L45.001,59.1 Z M31.938,69.334 L31.938,58.539 C31.938,58.495 31.974,58.459 32.018,58.459 L42.812,58.459 L31.938,69.334 Z M47.186,58.458 L57.982,58.458 C58.026,58.458 58.062,58.494 58.062,58.538 L58.062,69.334 L47.186,58.458 Z" id="Shape"></path>
                        <path d="M17.539,27.278 C23.099,27.278 27.861,23.31 28.864,17.843 C29.007,17.068 28.68,16.282 28.032,15.835 C27.382,15.387 26.532,15.363 25.858,15.773 C24.939,16.331 23.892,16.627 22.829,16.627 C19.598,16.627 16.969,13.998 16.969,10.767 C16.969,9.577 17.326,8.43 18.002,7.448 C18.448,6.8 18.473,5.949 18.064,5.276 C17.655,4.603 16.893,4.234 16.107,4.329 C10.354,5.045 6.016,9.957 6.016,15.755 C6.017,22.109 11.186,27.278 17.539,27.278 Z M13.021,9.747 C12.986,10.084 12.968,10.425 12.968,10.767 C12.968,16.204 17.391,20.627 22.828,20.627 C22.977,20.627 23.128,20.624 23.277,20.617 C21.887,22.259 19.815,23.278 17.538,23.278 C13.391,23.278 10.016,19.903 10.016,15.755 C10.017,13.321 11.188,11.127 13.021,9.747 Z" id="Shape"></path>
                    </g>
                </g>
            </g>
        </g>
    </g>
</svg>